SplineFontDB: 3.0
FontName: Besley-it-Fatface
FullName: Besley* Fatface
FamilyName: Besley* Fatface
Weight: Fatface
Copyright: Copyright (c) 2017, Owen Earl,,, (EwonRael@yahoo.com)
Version: 001.1
ItalicAngle: 0
UnderlinePosition: -100
UnderlineWidth: 50
Ascent: 800
Descent: 200
InvalidEm: 0
LayerCount: 2
Layer: 0 0 "Back" 1
Layer: 1 0 "Fore" 0
XUID: [1021 31 -699969567 16487490]
FSType: 0
OS2Version: 0
OS2_WeightWidthSlopeOnly: 0
OS2_UseTypoMetrics: 1
CreationTime: 1460762150
ModificationTime: 1500657179
PfmFamily: 17
TTFWeight: 900
TTFWidth: 5
LineGap: 100
VLineGap: 0
OS2TypoAscent: 800
OS2TypoAOffset: 0
OS2TypoDescent: -200
OS2TypoDOffset: 0
OS2TypoLinegap: 100
OS2WinAscent: 900
OS2WinAOffset: 0
OS2WinDescent: 300
OS2WinDOffset: 0
HheadAscent: 900
HheadAOffset: 0
HheadDescent: -200
HheadDOffset: 0
OS2CapHeight: 700
OS2XHeight: 460
OS2FamilyClass: 1024
OS2Vendor: 'PfEd'
OS2UnicodeRanges: 00000001.00000000.00000000.00000000
Lookup: 5 0 0 "'calt' Contextual Alternates lookup 1" { "'calt' Contextual Alternates lookup 1-1"  } ['calt' ('DFLT' <'dflt' > 'grek' <'dflt' > 'latn' <'dflt' > ) ]
Lookup: 1 0 0 "'ss01' Style Set 1 lookup 2" { "'ss01' Style Set 1 lookup 2-1"  } ['ss01' ('DFLT' <'dflt' > 'grek' <'dflt' > 'latn' <'dflt' > ) ]
Lookup: 4 0 1 "'liga' Standard Ligatures lookup 0" { "Not your mama's contextual ligatures"  } ['liga' ('DFLT' <'dflt' > 'grek' <'dflt' > 'latn' <'dflt' > ) ]
Lookup: 258 0 0 "Kern like there's no tomorrow" { "Get it right" [150,0,5] } ['kern' ('DFLT' <'dflt' > 'grek' <'dflt' > 'latn' <'dflt' > ) ]
MarkAttachClasses: 1
DEI: 91125
KernClass2: 21 21 "Get it right"
 1 A
 7 B R C N
 3 D O
 7 E H I Z
 5 F P Y
 3 K X
 3 Q M
 3 V W
 9 a h m n u
 9 b e o p c
 1 q
 7 d j l i
 3 k x
 11 r v w y g G
 68 quotedbl quotesingle quoteleft quoteright quotedblleft quotedblright
 1 f
 1 t
 1 T
 1 L
 3 U J
 3 A J
 31 B D E F H I K L M N P R uniFFFD
 7 C G O Q
 3 S Z
 3 V W
 1 U
 1 X
 1 Y
 5 a g s
 7 b h k l
 9 c d e o q
 3 f i
 5 p t u
 5 m n r
 3 v w
 1 z

StartChar: ampersand
Encoding: 38 38 0
Width: 920
Flags: HMW
LayerCount: 2
Back
SplineSet
745 405 m 5
 715 182 523 -20 290 -20 c 4
 127 -20 1 57 1 200 c 5
 191 220 l 5
 191 138 251 85 325 85 c 4
 499 85 630 243 650 405 c 5
 745 405 l 5
565 460 m 5
 815 460 l 5
 815 365 l 5
 565 365 l 5
 565 460 l 5
1 200 m 5
 1 490 462 385 462 615 c 5
 626 625 l 5
 626 385 191 460 191 220 c 5
 1 200 l 5
600 95 m 5
 810 95 l 5
 810 0 l 5
 600 0 l 5
 600 95 l 5
746 0 m 5
 546 0 l 5
 195 490 l 6
 170 529 149 568 149 603 c 4
 149 693 244 770 400 770 c 4
 547 770 626 705 626 625 c 5
 462 615 l 5
 462 652 444 700 399 700 c 4
 352 700 327 668 327 625 c 4
 327 590 351.689730911 554.11489986 395 490 c 6
 746 0 l 5
EndSplineSet
Fore
SplineSet
618 460 m 6
 834 460 l 2
 852 460 855 458 855 431 c 6
 855 375 l 6
 855 347 853 345 832 345 c 0
 818.666666667 345 805.333333333 345 792 345 c 4
 760 345 763 329 754 307 c 4
 739 272 720 238 697 205 c 4
 686 190 678 183 678 173 c 0
 678 168 680 162 686 153 c 6
 702 131 l 6
 711 119 712 115 734 115 c 6
 846 115 l 2
 857 115 860 113 860 95 c 6
 860 16 l 2
 860 2 858 0 838 0 c 4
 752 0 666 0 580 0 c 4
 544 0 542 5 528 25 c 4
 521 34 518 38 513 38 c 0
 508 38 503 34 492 29 c 4
 429 -1 358 -20 280 -20 c 4
 107 -20 1 57 1 200 c 4
 1 328 91 383 192 423 c 4
 215 432 225 436 225 443 c 0
 225 449 220 456 209 471 c 6
 195 490 l 5
 170 529 149 568 149 603 c 4
 149 713 264 770 420 770 c 4
 567 770 666 715 666 625 c 4
 666 529 596 478 512 439 c 4
 504 435 497 431 489 428 c 5
 522.133181033 381.466514366 555.659488126 335.326154793 589 289 c 4
 597 278 601 268 606 268 c 0
 609 268 613 271 618 279 c 4
 626 292 633 305 640 319 c 4
 645 329 648 334 648 338 c 0
 648 344 640 345 618 345 c 6
 598 345 l 6
 586 345 584 349 584 356 c 0
 584 360 585 365 585 371 c 6
 585 430 l 2
 585 458 586 460 618 460 c 6
271 315 m 4
 246 290 231 259 231 220 c 4
 231 148 271 108 335 108 c 4
 362 108 387 111 412 118 c 4
 435 124 445 129 445 136 c 0
 445 142 438 150 429 163 c 6
 326 307 l 6
 314 324 307 334 299 334 c 0
 292 334 284 328 271 315 c 4
424 533 m 0
 445.055243357 533 462 586.131675313 462 615 c 4
 462 642 454 680 419 680 c 4
 392 680 367 658 367 625 c 4
 367 605 378 585 396 559 c 4
 407 542 416 533 424 533 c 0
EndSplineSet
EndChar

StartChar: period
Encoding: 46 46 1
Width: 320
Flags: HMW
LayerCount: 2
Fore
SplineSet
40 100 m 0
 40 166 94 220 160 220 c 0
 226 220 280 166 280 100 c 0
 280 34 226 -20 160 -20 c 0
 94 -20 40 34 40 100 c 0
EndSplineSet
EndChar

StartChar: zero
Encoding: 48 48 2
Width: 570
Flags: HMW
LayerCount: 2
Fore
SplineSet
240 280 m 4
 240 128 251 85 285 85 c 0
 319 85 330 128 330 280 c 0
 330 432 319 475 285 475 c 0
 251 475 240 432 240 280 c 4
25 280 m 0
 25 473 122 580 285 580 c 0
 458 580 545 473 545 280 c 0
 545 87 438 -20 285 -20 c 0
 122 -20 25 87 25 280 c 0
EndSplineSet
EndChar

StartChar: one
Encoding: 49 49 3
Width: 570
VWidth: 1155
Flags: HMW
LayerCount: 2
Fore
SplineSet
45 41 m 6
 45 95 l 2
 45 130 46 130 79 130 c 0
 100.666666667 130 122.333333333 130 144 130 c 0
 186 130 190 135 190 164 c 0
 190 213 190 262 190 311 c 0
 190 342 186 345 165 345 c 0
 138 345 111 345 84 345 c 0
 64 345 62 349 62 361 c 0
 62 380.333333333 62 399.666666667 62 419 c 0
 62 466 63 464 108 465 c 0
 196 467 271 482 317 563 c 0
 328 583 326 590 360 590 c 2
 387 590 l 2
 412 590 415 586 415 570 c 2
 415 162 l 2
 415 132 417 130 456 130 c 2
 501 130 l 2
 538 130 540 128 540 99 c 0
 540 79.6666666667 540 60.3333333333 540 41 c 0
 540 0 539 0 500 -0 c 2
 76 -0 l 2
 48 0 45 3 45 41 c 6
EndSplineSet
EndChar

StartChar: two
Encoding: 50 50 4
Width: 570
VWidth: 1155
Flags: HMW
LayerCount: 2
Fore
SplineSet
550 198 m 4
 546 62 493 -40 370 -40 c 0
 263 -40 258 30 185 30 c 0
 155 30 131 20 116 2 c 0
 104 -12 109 -20 83 -20 c 2
 44 -20 l 2
 28 -20 25 -17 25 -8 c 0
 25 -4 26 1 26 8 c 0
 35 138 106 216 217 261 c 0
 300 295 317 346 317 410 c 0
 317 454 291 498 222 498 c 0
 198 498 180 486 180 476 c 0
 180 461 267 474 267 378 c 0
 267 331 214 280 147 280 c 0
 78 280 31 318 31 396 c 0
 31 508 160 580 282 580 c 0
 423 580 538 530 538 400 c 0
 538 300 446 250 252 196 c 0
 228 189 202 180 188 169 c 0
 180 163 177 159 177 157 c 0
 177 156 178 156 179 156 c 0
 182 156 187 158 195 162 c 0
 209 169 239 177 260 177 c 0
 320 177 340 143 386 143 c 0
 420 143 447 156 458 187 c 0
 464 204 456 217 481 217 c 2
 535 217 l 2
 552 217 551 214 550 198 c 4
EndSplineSet
EndChar

StartChar: three
Encoding: 51 51 5
Width: 570
VWidth: 1155
Flags: HMW
LayerCount: 2
Fore
SplineSet
15 -1 m 0
 15 72 70 125 129 125 c 0
 186 125 236 94 236 27 c 0
 236 -39 174 -38 174 -61 c 0
 174 -78 187 -88 216 -88 c 0
 275 -88 324 -34 324 50 c 0
 324 117 309 182 241 194 c 0
 221 198 217 193 217 217 c 2
 217 256 l 2
 217 278 220 274 238 277 c 0
 297 287 304 343 304 401 c 0
 304 475 265 498 236 498 c 0
 202 498 174 484 174 468 c 0
 174 450 246 450 246 384 c 0
 246 327 201 296 144 296 c 0
 85 296 35 344 35 412 c 0
 35 504 124 580 276 580 c 0
 427 580 525 521 525 401 c 0
 525 327 495 270 402 248 c 0
 380 243 364 240 364 236 c 0
 364 233 373 229 394 225 c 0
 502 203 545 141 545 50 c 0
 545 -90 427 -170 236 -170 c 0
 74 -170 15 -93 15 -1 c 0
EndSplineSet
EndChar

StartChar: four
Encoding: 52 52 6
Width: 570
VWidth: 1155
Flags: HMW
LayerCount: 2
Fore
SplineSet
555 -74 m 2
 555 -116 l 2
 555 -147 552 -150 530 -150 c 0
 421.333333333 -150 312.666666667 -150 204 -150 c 0
 183 -150 179 -145 179 -132 c 0
 179 -126 180 -119 180 -110 c 2
 180 -59 l 2
 180 -42 183 -40 194 -40 c 0
 204.333333333 -40 214.666666667 -40 225 -40 c 0
 234 -40 241 -41 247 -41 c 0
 259 -41 265 -37 265 -17 c 2
 265 13 l 2
 265 42 261 45 242 45 c 2
 45 45 l 2
 25 45 25 45 25 67 c 2
 25 94 l 2
 25 134 35 155 46 181 c 0
 111 333 207 391 230 508 c 0
 239 553 229 560 285 560 c 2
 441 560 l 2
 459 560 464 553 464 543 c 0
 464 535 460 525 458 515 c 0
 426 367 240 335 152 189 c 0
 144 175 134 164 134 156 c 0
 134 149 143 145 168 145 c 2
 252 145 l 2
 264 145 265 146 265 162 c 2
 265 191 l 2
 265 226 275 223 297 234 c 0
 344 257 387 284 408 344 c 0
 415 364 411 370 440 370 c 2
 460 370 l 2
 478 370 480 367 480 355 c 2
 480 162 l 2
 480 147 482 145 503 145 c 2
 530 145 l 2
 548 145 550 142 550 130 c 2
 550 64 l 2
 550 47 549 45 526 45 c 2
 499 45 l 2
 483 45 480 43 480 19 c 2
 480 -18 l 2
 480 -36 483 -40 510 -40 c 2
 537 -40 l 2
 553 -40 556 -45 556 -55 c 0
 556 -60 555 -66 555 -74 c 2
EndSplineSet
EndChar

StartChar: five
Encoding: 53 53 7
Width: 570
VWidth: 1155
Flags: HMW
LayerCount: 2
Fore
SplineSet
15 9 m 0
 15 87 65 150 144 150 c 0
 211 150 247 104 247 47 c 0
 247 -31 183 -9 183 -42 c 0
 183 -60 202 -73 226 -73 c 0
 275 -73 324 -44 324 60 c 0
 324 194 285 211 246 211 c 0
 227 211 205 207 174 191 c 0
 160 184 153 177 128 177 c 2
 64 177 l 2
 47 177 43 180 43 188 c 0
 43 193 45 200 46 210 c 2
 80 532 l 2
 83 562 89 565 111 565 c 2
 227 565 l 2
 259 565 286 564 309 564 c 0
 362 564 392 568 416 591 c 0
 428 602 430 607 456 607 c 2
 488 607 l 2
 502 607 505 602 505 594 c 0
 505 588 504 581 503 572 c 2
 498 495 l 2
 490 373 440 365 276 365 c 2
 185 365 l 2
 167 365 168 364 166 348 c 2
 160 294 l 2
 160 291 159 289 159 287 c 0
 159 281 160 278 163 278 c 0
 168 278 176 286 186 290 c 4
 215 303 249 310 288 310 c 0
 439 310 545 230 545 80 c 0
 545 -80 407 -165 226 -165 c 0
 74 -165 15 -73 15 9 c 0
EndSplineSet
EndChar

StartChar: six
Encoding: 54 54 8
Width: 570
VWidth: 1155
Flags: HMW
LayerCount: 2
Fore
SplineSet
240 250 m 0
 240 146 240 70 284 70 c 4
 323 70 330 136 330 220 c 0
 330 334 318 366 289 366 c 0
 256 366 240 330 240 250 c 0
550 220 m 0
 550 100 460 -20 279 -20 c 0
 98 -20 20 110 20 350 c 0
 20 550 133 730 324 730 c 0
 456 730 550 673 550 581 c 0
 550 503 495 465 436 465 c 0
 379 465 329 496 329 563 c 0
 329 609 363 623 363 636 c 0
 363 649 343 658 314 658 c 0
 263 658 247 573 242 462 c 1
 242 448 l 2
 242 438 243 434 246 434 c 0
 250 434 256 440 268 446 c 4
 283 454 302 455 326 455 c 0
 457 455 550 370 550 220 c 0
EndSplineSet
EndChar

StartChar: seven
Encoding: 55 55 9
Width: 570
VWidth: 1155
Flags: HMW
LayerCount: 2
Fore
SplineSet
30 342 m 1
 33 475 60 590 180 590 c 0
 297 590 312 525 385 525 c 0
 410 525 434 531 452 542 c 0
 473 555 466 570 500 570 c 2
 528 570 l 2
 548 570 554 566 554 557 c 0
 554 550 550 540 546 526 c 0
 521 446 444 316 368 198 c 0
 330 139 329 110 329 106 c 0
 329 53 392 54 392 -42 c 0
 392 -109 338 -160 264 -160 c 0
 196 -160 139 -113 139 -24 c 0
 139 55 189 123 259 211 c 0
 284 243 313 282 341 323 c 0
 352 338 365 352 365 356 c 0
 365 357 364 357 362 357 c 0
 359 357 353 356 342 352 c 0
 327 347 313 343 300 343 c 0
 240 343 230 387 184 387 c 0
 160 387 134 375 123 348 c 0
 113 325 125 313 90 313 c 2
 58 313 l 2
 34 313 30 314 30 334 c 2
 30 342 l 1
EndSplineSet
EndChar

StartChar: eight
Encoding: 56 56 10
Width: 570
VWidth: 1155
Flags: HMW
LayerCount: 2
Fore
SplineSet
235 190 m 0
 235 106 256 60 285 60 c 0
 314 60 335 106 335 190 c 0
 335 274 314 328 285 328 c 0
 256 328 235 274 235 190 c 0
50 530 m 0
 50 640 144 730 285 730 c 0
 426 730 520 640 520 530 c 0
 520 462 482 410 418 385 c 4
 396 377 382 372 382 367 c 0
 382 363 391 358 411 352 c 4
 492 326 540 263 540 180 c 0
 540 60 456 -20 285 -20 c 0
 114 -20 30 60 30 180 c 0
 30 257 72 317 144 346 c 4
 172 357 183 362 183 367 c 0
 183 373 163 378 133 394 c 4
 81 422 50 469 50 530 c 0
245 530 m 0
 245 456 256 405 285 405 c 0
 314 405 325 456 325 530 c 0
 325 604 314 645 285 645 c 0
 256 645 245 604 245 530 c 0
EndSplineSet
EndChar

StartChar: nine
Encoding: 57 57 11
Width: 570
VWidth: 1155
Flags: HMW
LayerCount: 2
Fore
SplineSet
330 310 m 4
 330 414 325 490 286 490 c 4
 247 490 240 424 240 340 c 4
 240 226 252 194 281 194 c 4
 314 194 330 230 330 310 c 4
20 340 m 4
 20 460 110 580 291 580 c 4
 472 580 550 450 550 210 c 4
 550 10 437 -170 246 -170 c 4
 114 -170 20 -113 20 -21 c 4
 20 57 75 95 134 95 c 4
 191 95 241 64 241 -3 c 4
 241 -49 207 -63 207 -76 c 4
 207 -89 227 -98 256 -98 c 4
 305 -98 321 -21 327 82 c 4
 328 95 329 105 329 111 c 0
 329 119 327 122 324 122 c 0
 319 122 310 116 294 111 c 4
 280 107 264 105 244 105 c 4
 113 105 20 190 20 340 c 4
EndSplineSet
EndChar

StartChar: A
Encoding: 65 65 12
Width: 990
Flags: HMW
LayerCount: 2
Fore
SplineSet
415 464 m 2
 374 364 l 2
 370 353 366 346 366 342 c 0
 366 336 374 335 398 335 c 2
 488 335 l 2
 510 335 517 336 517 342 c 0
 517 346 514 353 510 364 c 2
 475 460 l 2
 470 475 465 498 462 508 c 0
 457 525 453 543 446 543 c 0
 439 543 434 523 429 506 c 0
 426 497 424 485 415 464 c 2
348 -0 m 2
 46 0 l 2
 20 0 20 4 20 30 c 2
 20 107 l 2
 20 130 26 135 48 135 c 2
 104 135 l 2
 143 135 141 142 152 168 c 2
 389 726 l 2
 402 756 400 765 444 765 c 2
 570 765 l 2
 615 765 612 749 624 718 c 2
 847 158 l 2
 855 137 856 135 886 135 c 2
 942 135 l 2
 964 135 970 130 970 107 c 2
 970 32 l 2
 970 1 969 0 934 0 c 2
 509 -0 l 2
 482 0 480 2 480 36 c 2
 480 106 l 2
 480 131 486 135 510 135 c 2
 574 135 l 2
 584 135 588 135 588 141 c 0
 588 144 587 149 584 156 c 2
 572 190 l 2
 565 210 563 210 536 210 c 2
 336 210 l 2
 312 210 311 209 304 192 c 2
 294 168 l 2
 289 156 284 148 284 143 c 0
 284 137 291 135 314 135 c 2
 338 135 l 2
 364 135 370 135 370 107 c 2
 370 28 l 2
 370 2 368 0 348 -0 c 2
EndSplineSet
EndChar

StartChar: B
Encoding: 66 66 13
Width: 860
Flags: HMW
LayerCount: 2
Fore
SplineSet
490 0 m 2
 80 0 l 2
 69 0 61 -1 54 -1 c 0
 36 -1 30 4 30 33 c 2
 30 104 l 2
 30 125 31 135 54 135 c 2
 116 135 l 2
 137 135 140 139 140 152 c 0
 140 296.333333333 140 440.666666667 140 585 c 0
 140 613 137 615 118 615 c 0
 100 615 82 615 64 615 c 0
 30 615 30 615 30 649 c 2
 30 725 l 2
 30 747 34 750 48 750 c 2
 460 750 l 2
 691 750 790 705 790 565 c 0
 790 485 744 436 660 409 c 0
 633 400 618 395 618 390 c 0
 618 386 631 382 660 376 c 0
 768 355 830 300 830 210 c 0
 830 50 731 0 490 0 c 2
470 135 m 0
 556 135 580 176 580 235 c 0
 580 294 536 320 470 320 c 2
 414 320 l 2
 379 320 375 317 375 283 c 2
 375 159 l 2
 375 137 381 135 396 135 c 0
 420.666666667 135 445.333333333 135 470 135 c 0
410 455 m 2
 450 455 l 2
 511 455 550 481 550 540 c 0
 550 599 521 615 450 615 c 2
 407 615 l 2
 378 615 375 613 375 585 c 2
 375 493 l 2
 375 461 377 455 410 455 c 2
EndSplineSet
EndChar

StartChar: C
Encoding: 67 67 14
Width: 875
Flags: HMW
LayerCount: 2
Back
SplineSet
305 375 m 4
 305 213 351 110 465 110 c 4
 589 110 625 213 625 375 c 4
 625 537 579 640 465 640 c 4
 351 640 305 537 305 375 c 4
45 375 m 4
 45 608 202 770 465 770 c 4
 728 770 885 608 885 375 c 4
 885 142 718 -20 465 -20 c 4
 202 -20 45 142 45 375 c 4
EndSplineSet
Fore
SplineSet
832 262 m 0
 810 96 689 -20 470 -20 c 0
 217 -20 45 132 45 375 c 0
 45 598 222 770 465 770 c 0
 528 770 579 753 620 725 c 0
 635 715 642 703 651 703 c 0
 656 703 660 706 667 714 c 2
 688 740 l 2
 699 754 710 755 733 755 c 2
 786 755 l 2
 813 755 815 746 815 723 c 0
 815 646.666666667 815 570.333333333 815 494 c 0
 815 466 800 465 776 465 c 0
 747.333333333 465 718.666666667 465 690 465 c 0
 649 465 657 483 648 512 c 0
 623 589 576 642 480 642 c 0
 376 642 305 547 305 375 c 0
 305 203 376 114 490 114 c 0
 581 114 653 167 674 256 c 0
 681 286 673 295 712 295 c 2
 806 295 l 2
 829 295 834 293 834 282 c 0
 834 277 833 271 832 262 c 0
EndSplineSet
EndChar

StartChar: D
Encoding: 68 68 15
Width: 935
Flags: HMW
LayerCount: 2
Fore
SplineSet
460 0 m 2
 70 0 l 2
 61 0 55 -1 49 -1 c 0
 35 -1 30 3 30 26 c 2
 30 104 l 2
 30 128 33 135 56 135 c 2
 112 135 l 2
 137 135 140 140 140 155 c 0
 140 300 140 445 140 590 c 0
 140 615 139 615 116 615 c 2
 52 615 l 2
 32 615 30 623 30 639 c 0
 30 667.333333333 30 695.666666667 30 724 c 0
 30 747 35 751 49 751 c 0
 55 751 61 750 70 750 c 2
 460 750 l 2
 793 750 890 588 890 375 c 0
 890 162 783 0 460 0 c 2
396 135 m 2
 450 135 l 2
 564 135 630 213 630 375 c 0
 630 537 554 615 450 615 c 2
 400 615 l 2
 378 615 375 611 375 597 c 0
 375 452.666666667 375 308.333333333 375 164 c 0
 375 138 379 135 396 135 c 2
EndSplineSet
EndChar

StartChar: E
Encoding: 69 69 16
Width: 825
Flags: HMW
LayerCount: 2
Fore
SplineSet
113 615 m 2
 66 615 l 2
 33 615 30 619 30 642 c 0
 30 668.666666667 30 695.333333333 30 722 c 0
 30 747 34 750 50 750 c 2
 764 750 l 2
 794 750 795 749 795 714 c 2
 795 490 l 2
 795 482 796 476 796 471 c 0
 796 460 793 455 774 455 c 2
 698 455 l 2
 660 455 666 462 664 496 c 0
 658 582 627 615 525 615 c 2
 404 615 l 2
 384 615 375 608 375 588 c 2
 375 456 l 2
 375 438 376 429 389 429 c 0
 393 429 399 430 406 432 c 0
 446 441 473 467 484 502 c 0
 492 527 480 543 514 543 c 2
 549 543 l 6
 577 543 585 542 585 514 c 2
 585 239 l 2
 585 212 581 208 542 208 c 2
 512 208 l 2
 481 208 491 223 485 246 c 0
 476 279 454 306 422 319 c 0
 410 324 399 328 391 328 c 0
 381 328 375 321 375 300 c 2
 375 160 l 2
 375 138 382 134 396 134 c 0
 403 134 411 135 422 135 c 2
 515 135 l 2
 640 135 670 179 674 290 c 0
 675 322 679 325 703 325 c 0
 728.666666667 325 754.333333333 325 780 325 c 0
 802 325 806 319 806 306 c 0
 806 300 805 293 805 284 c 2
 805 42 l 2
 805 1 803 0 767 -0 c 2
 52 -0 l 2
 34 0 30 3 30 30 c 2
 30 110 l 2
 30 133 33 135 48 135 c 0
 68 135 88 135 108 135 c 0
 139 135 140 137 140 163 c 0
 140 303.333333333 140 443.666666667 140 584 c 0
 140 614 138 615 113 615 c 2
EndSplineSet
EndChar

StartChar: F
Encoding: 70 70 17
Width: 815
Flags: HMW
LayerCount: 2
Fore
SplineSet
116 615 m 2
 50 615 l 2
 34 615 30 618 30 644 c 2
 30 724 l 2
 30 747 35 750 49 750 c 2
 756 750 l 2
 781 750 785 747 785 712 c 2
 785 467 l 2
 785 449 782 445 754 445 c 2
 684 445 l 2
 658 445 656 447 654 480 c 0
 649 573 620 615 515 615 c 2
 399 615 l 2
 376 615 375 614 375 588 c 2
 375 460 l 2
 375 433 375 421 389 421 c 0
 394 421 402 423 412 427 c 0
 441 438 462 459 472 486 c 0
 481 509 474 533 507 533 c 2
 550 533 l 2
 572 533 576 528 576 515 c 0
 576 510 575 502 575 494 c 2
 575 224 l 2
 575 189 576 188 540 188 c 2
 508 188 l 2
 470 188 483 202 474 230 c 0
 465 260 445 284 416 297 c 0
 404 302 395 306 389 306 c 0
 379 306 375 296 375 270 c 2
 375 179 l 6
 375 140 380 135 418 135 c 2
 470 135 l 2
 503 135 505 133 505 94 c 2
 505 28 l 2
 505 2 503 0 484 -0 c 2
 55 -0 l 2
 33 0 30 3 30 34 c 2
 30 115 l 2
 30 131 33 135 58 135 c 2
 102 135 l 2
 139 135 140 137 140 169 c 0
 140 307.333333333 140 445.666666667 140 584 c 0
 140 613 138 615 116 615 c 2
EndSplineSet
EndChar

StartChar: G
Encoding: 71 71 18
Width: 925
Flags: HMW
LayerCount: 2
Back
SplineSet
305 375 m 4
 305 213 351 110 465 110 c 4
 589 110 625 213 625 375 c 4
 625 537 579 640 465 640 c 4
 351 640 305 537 305 375 c 4
45 375 m 4
 45 608 202 770 465 770 c 4
 728 770 885 608 885 375 c 4
 885 142 718 -20 465 -20 c 4
 202 -20 45 142 45 375 c 4
EndSplineSet
Fore
SplineSet
510 430 m 6
 928 430 l 2
 941 430 945 428 945 406 c 2
 945 326 l 2
 945 298 942 295 922 295 c 0
 906.666666667 295 891.333333333 295 876 295 c 0
 869 295 864 296 859 296 c 0
 850 296 845 293 845 278 c 2
 845 246 l 2
 845 216 841 203 832 184 c 0
 782 81 664 -20 470 -20 c 0
 222 -20 45 132 45 375 c 0
 45 598 212 770 455 770 c 0
 531 770 591 751 636 721 c 0
 649 712 656 703 663 703 c 0
 667 703 672 706 678 714 c 2
 694 734 l 2
 705 749 706 755 734 755 c 2
 799 755 l 2
 824 755 825 754 825 726 c 2
 825 520 l 2
 825 486 824 485 793 485 c 0
 768.666666667 485 744.333333333 485 720 485 c 0
 679 485 680 489 667 516 c 0
 628 598 573 642 480 642 c 0
 376 642 305 547 305 375 c 0
 305 203 366 105 465 105 c 0
 546 105 577 141 596 181 c 0
 605 201 610 214 610 244 c 2
 610 270 l 2
 610 293 606 295 592 295 c 0
 561.333333333 295 530.666666667 295 500 295 c 0
 464 295 465 296 465 332 c 2
 465 402 l 2
 465 427 471 431 486 431 c 0
 492 431 500 430 510 430 c 6
EndSplineSet
EndChar

StartChar: H
Encoding: 72 72 19
Width: 1020
Flags: HMW
LayerCount: 2
Fore
SplineSet
375 588 m 6
 375 472 l 2
 375 453 378 450 406 450 c 2
 616 450 l 2
 641 450 645 453 645 488 c 2
 645 588 l 2
 645 612 640 615 625 615 c 0
 608 615 591 615 574 615 c 0
 547 615 545 618 545 637 c 0
 545 666 545 695 545 724 c 0
 545 747 550 750 564 750 c 2
 970 750 l 2
 986 750 990 747 990 722 c 2
 990 635 l 2
 990 619 987 615 962 615 c 2
 901 615 l 2
 883 615 880 613 880 586 c 2
 880 164 l 2
 880 135 881 135 908 135 c 2
 968 135 l 2
 987 135 990 132 990 104 c 2
 990 44 l 2
 990 34 991 27 991 21 c 0
 991 6 987 0 962 0 c 2
 575 -0 l 2
 546 0 545 0 545 32 c 2
 545 110 l 2
 545 133 548 135 564 135 c 0
 581.333333333 135 598.666666667 135 616 135 c 0
 643 135 645 137 645 158 c 0
 645 205.333333333 645 252.666666667 645 300 c 0
 645 322 639 326 626 326 c 0
 620 326 613 325 604 325 c 2
 408 325 l 2
 377 325 375 322 375 300 c 2
 375 165 l 2
 375 138 377 135 412 135 c 2
 450 135 l 2
 473 135 475 133 475 116 c 2
 475 22 l 2
 475 2 474 0 448 0 c 2
 59 -0 l 2
 32 0 30 2 30 36 c 2
 30 115 l 2
 30 132 33 135 58 135 c 2
 108 135 l 2
 137 135 140 140 140 158 c 0
 140 302 140 446 140 590 c 0
 140 613 136 615 122 615 c 2
 58 615 l 2
 31 615 30 616 30 648 c 2
 30 716 l 2
 30 747 33 750 55 750 c 2
 452 750 l 2
 471 750 475 747 475 718 c 2
 475 636 l 2
 475 617 473 615 448 615 c 2
 395 615 l 2
 379 615 375 613 375 588 c 6
EndSplineSet
EndChar

StartChar: I
Encoding: 73 73 20
Width: 545
Flags: HMW
LayerCount: 2
Fore
SplineSet
385 595 m 2
 385 167 l 2
 385 127 388 125 419 125 c 0
 442 125 465 125 488 125 c 0
 513 125 515 121 515 105 c 0
 515 80.3333333333 515 55.6666666667 515 31 c 0
 515 3 511 0 492 -0 c 0
 347.666666667 -0 203.333333333 0 59 0 c 0
 32 0 30 3 30 22 c 0
 30 48.3333333333 30 74.6666666667 30 101 c 0
 30 122 36 126 49 126 c 0
 55 126 63 125 73 125 c 2
 121 125 l 2
 149 125 150 126 150 159 c 2
 150 599 l 2
 150 623 148 625 130 625 c 0
 106 625 82 625 58 625 c 0
 32 625 30 627 30 646 c 0
 30 674.666666667 30 703.333333333 30 732 c 0
 30 748 34 751 44 751 c 0
 49 751 55 750 62 750 c 2
 479 750 l 2
 486 750 494 751 500 751 c 0
 509 751 515 749 515 737 c 2
 515 642 l 2
 515 626 513 625 492 625 c 2
 410 625 l 2
 386 625 385 624 385 595 c 2
EndSplineSet
EndChar

StartChar: J
Encoding: 74 74 21
Width: 696
Flags: HMW
LayerCount: 2
Fore
SplineSet
170 144 m 0
 170 127 184 95 236 95 c 0
 287 95 331 130 331 240 c 2
 331 591 l 2
 331 612 329 615 299 615 c 2
 203 615 l 2
 173 615 171 617 171 640 c 0
 171 665.333333333 171 690.666666667 171 716 c 0
 171 746 177 751 196 751 c 0
 203 751 211 750 221 750 c 2
 647 750 l 2
 675 750 676 749 676 716 c 2
 676 633 l 2
 676 619 673 615 651 615 c 2
 589 615 l 2
 556 615 556 615 556 582 c 2
 556 270 l 2
 556 80 417 -20 236 -20 c 0
 79 -20 -30 85 -30 195 c 0
 -30 297 29 370 119 370 c 0
 196 370 243 324 243 261 c 0
 243 171 170 172 170 144 c 0
EndSplineSet
EndChar

StartChar: K
Encoding: 75 75 22
Width: 960
Flags: HMW
LayerCount: 2
Fore
SplineSet
600 176 m 2
 514 306 l 2
 502 324 497 334 489 334 c 0
 483 334 477 329 464 319 c 2
 400 266 l 2
 380 250 375 247 375 208 c 6
 375 166 l 2
 375 138 380 135 397 135 c 0
 414.666666667 135 432.333333333 135 450 135 c 0
 485 135 485 135 485 100 c 2
 485 30 l 2
 485 2 483 0 462 -0 c 0
 333.333333333 -0 204.666666667 0 76 0 c 0
 66 0 57 -1 50 -1 c 0
 36 -1 30 3 30 26 c 2
 30 103 l 2
 30 132 33 135 72 135 c 2
 108 135 l 2
 137 135 142 147 142 166 c 0
 142 178 140 192 140 208 c 2
 140 592 l 2
 140 614 139 615 122 615 c 2
 65 615 l 2
 31 615 30 615 30 652 c 2
 30 716 l 2
 30 748 32 750 57 750 c 0
 188.666666667 750 320.333333333 750 452 750 c 0
 461 750 470 751 477 751 c 0
 488 751 495 748 495 730 c 2
 495 644 l 2
 495 616 494 615 469 615 c 2
 393 615 l 2
 379 615 375 612 375 590 c 2
 375 444 l 2
 375 418 376 408 381 408 c 0
 385 408 392 415 404 425 c 2
 606 589 l 2
 616 597 633 605 633 610 c 0
 633 613 627 615 610 615 c 2
 568 615 l 2
 543 615 540 618 540 635 c 0
 540 664 540 693 540 722 c 0
 540 748 543 750 561 750 c 0
 674.666666667 750 788.333333333 750 902 750 c 0
 910 750 918 751 924 751 c 0
 934 751 940 748 940 732 c 2
 940 639 l 2
 940 620 937 615 906 615 c 2
 862 615 l 2
 825 615 817 610 798 594 c 2
 690 505 l 2
 666 485 655 477 655 465 c 0
 655 455 663 443 678 422 c 2
 854 176 l 2
 875 146 876 135 930 135 c 2
 972 135 l 2
 993 135 995 132 995 118 c 0
 995 91.3333333333 995 64.6666666667 995 38 c 0
 995 30 996 22 996 17 c 0
 996 5 992 0 972 0 c 2
 568 -0 l 2
 527 0 525 1 525 48 c 2
 525 112 l 2
 525 132 527 135 556 135 c 2
 600 135 l 2
 617 135 622 138 622 143 c 0
 622 151 608 164 600 176 c 2
EndSplineSet
EndChar

StartChar: L
Encoding: 76 76 23
Width: 790
Flags: HMW
LayerCount: 2
Fore
SplineSet
114 615 m 6
 64 615 l 2
 34 615 29 623 29 641 c 0
 29 650 30 661 30 674 c 2
 30 718 l 2
 30 749 31 750 59 750 c 0
 191.333333333 750 323.666666667 750 456 750 c 0
 467 750 476 751 483 751 c 0
 498 751 505 747 505 722 c 2
 505 642 l 2
 505 620 502 615 468 615 c 2
 420 615 l 2
 378 615 375 612 375 579 c 0
 375 456.666666667 375 334.333333333 375 212 c 0
 375 196 374 183 374 172 c 0
 374 145 380 135 426 135 c 2
 460 135 l 2
 559 135 619 166 635 276 c 0
 641 316 625 345 678 345 c 2
 724 345 l 2
 756 345 761 339 761 319 c 0
 761 312 760 303 760 292 c 2
 760 54 l 2
 760 0 760 0 706 0 c 2
 56 -0 l 2
 35 0 30 3 30 36 c 2
 30 106 l 2
 30 133 32 135 52 135 c 0
 70 135 88 135 106 135 c 0
 137 135 140 140 140 159 c 2
 140 596 l 2
 140 610 137 615 114 615 c 6
EndSplineSet
EndChar

StartChar: M
Encoding: 77 77 24
Width: 1205
Flags: HMW
LayerCount: 2
Fore
SplineSet
139 615 m 2
 88 615 l 2
 63 615 58 625 58 641 c 0
 58 650 60 662 60 675 c 2
 60 717 l 2
 60 747 66 750 84 750 c 0
 197.333333333 750 310.666666667 750 424 750 c 0
 491 750 488 739 504 690 c 2
 555 536 l 2
 572 485 587 436 599 380 c 0
 609 332 616 308 624 308 c 0
 632 308 639 330 651 376 c 0
 665 432 681 482 700 532 c 2
 765 708 l 2
 780 748 783 750 838 750 c 2
 1096 750 l 2
 1109 750 1121 751 1130 751 c 0
 1146 751 1155 747 1155 720 c 2
 1155 666 l 2
 1155 655 1156 647 1156 640 c 0
 1156 621 1151 615 1120 615 c 2
 1096 615 l 2
 1057 615 1051 613 1051 589 c 0
 1051 582 1052 574 1052 564 c 2
 1064 186 l 2
 1066 140 1062 135 1111 135 c 2
 1132 135 l 2
 1143 135 1152 136 1159 136 c 0
 1172 136 1180 132 1180 111 c 6
 1180 34 l 2
 1180 4 1177 0 1135 0 c 2
 781 0 l 2
 745 0 745 0 745 36 c 2
 745 78 l 2
 745 90 744 100 744 108 c 0
 744 127 749 135 781 135 c 2
 828 135 l 2
 846 135 850 137 850 158 c 2
 850 165 l 1
 845 360 l 2
 844 394 844 429 844 463 c 2
 844 508 l 2
 844 546 841 563 837 563 c 0
 832 563 825 540 816 502 c 0
 805 453 794 408 779 364 c 2
 668 39 l 2
 652 -8 654 -15 589 -15 c 2
 544 -15 l 2
 495 -15 495 -12 483 24 c 2
 355 394 l 2
 341 434 332 474 321 518 c 0
 312 554 305 576 301 576 c 0
 290.522942658 576 287.944036988 399.600924702 287 376 c 2
 278 168 l 2
 278 165 277 162 277 159 c 0
 277 137 283 135 301 135 c 0
 321 135 341 135 361 135 c 0
 387 135 390 131 390 114 c 0
 390 85 390 56 390 27 c 0
 390 3 380 -2 364 -2 c 0
 354 -2 341 0 328 0 c 2
 88 0 l 2
 74 0 62 -1 53 -1 c 0
 34 -1 25 4 25 36 c 2
 25 99 l 2
 25 134 27 135 57 135 c 2
 109 135 l 2
 142 135 142 135 144 168 c 2
 165 561 l 2
 166 575 168 586 168 595 c 0
 168 608 163 615 139 615 c 2
EndSplineSet
EndChar

StartChar: N
Encoding: 78 78 25
Width: 955
Flags: HMW
LayerCount: 2
Fore
SplineSet
78 615 m 6
 63 615 l 2
 33 615 30 618 30 657 c 2
 30 702 l 2
 30 747 35 750 67 750 c 0
 135.666666667 750 204.333333333 750 273 750 c 0
 340 750 351 744 381 711 c 2
 651 420 l 2
 672 397 686 374 695 374 c 0
 702 374 705 390 705 435 c 2
 705 587 l 2
 705 614 704 615 672 615 c 2
 630 615 l 2
 596 615 595 616 595 654 c 2
 595 718 l 2
 595 745 599 750 639 750 c 2
 909 750 l 2
 945 750 945 750 945 714 c 2
 945 672 l 2
 945 659 947 648 947 639 c 0
 947 624 942 615 918 615 c 2
 870 615 l 2
 843 615 839 609 839 593 c 0
 839 586 840 577 840 567 c 2
 840 78 l 2
 840 60 843 41 843 25 c 0
 843 2 837 -15 810 -15 c 2
 771 -15 l 2
 708 -15 703 -2 675 30 c 2
 318 435 l 2
 302 453 288 479 279 479 c 0
 273 479 270 468 270 435 c 2
 270 180 l 2
 270 136 272 135 311 135 c 0
 326.333333333 135 341.666666667 135 357 135 c 0
 382 135 386 129 386 114 c 0
 386 108 385 100 385 90 c 2
 385 45 l 2
 385 3 382 0 350 -0 c 2
 56 -0 l 2
 36 0 30 4 30 36 c 2
 30 108 l 2
 30 135 30 135 57 135 c 2
 96 135 l 2
 132 135 135 139 135 164 c 2
 135 563 l 2
 135 613 134 615 78 615 c 6
EndSplineSet
EndChar

StartChar: O
Encoding: 79 79 26
Width: 930
Flags: HMW
LayerCount: 2
Fore
SplineSet
45 375 m 0
 45 608 202 770 465 770 c 0
 728 770 885 608 885 375 c 0
 885 142 718 -20 465 -20 c 0
 202 -20 45 142 45 375 c 0
305 375 m 0
 305 213 351 110 465 110 c 0
 589 110 625 213 625 375 c 0
 625 537 579 640 465 640 c 0
 351 640 305 537 305 375 c 0
EndSplineSet
EndChar

StartChar: P
Encoding: 80 80 27
Width: 815
Flags: HMW
LayerCount: 2
Fore
SplineSet
108 615 m 2
 75 615 l 2
 30 615 30 615 30 660 c 2
 30 711 l 2
 30 746 36 750 58 750 c 0
 187 750 316 750 445 750 c 0
 626 750 785 690 785 520 c 0
 785 350 626 280 445 280 c 2
 411 280 l 2
 378 280 375 277 375 253 c 0
 375 227.666666667 375 202.333333333 375 177 c 0
 375 135 375 135 417 135 c 2
 465 135 l 2
 501 135 505 130 505 106 c 0
 505 83.6666666667 505 61.3333333333 505 39 c 0
 505 3 502 0 475 -0 c 2
 65 -0 l 2
 36 0 30 4 30 48 c 2
 30 87 l 2
 30 97 29 105 29 111 c 0
 29 129 33 135 63 135 c 2
 107 135 l 2
 138 135 140 137 140 177 c 2
 140 578 l 6
 140 608 137 615 108 615 c 2
425 415 m 0
 491 415 535 451 535 520 c 0
 535 589 491 615 425 615 c 2
 408 615 l 2
 376 615 375 613 375 586 c 2
 375 460 l 2
 375 417 376 415 425 415 c 0
EndSplineSet
EndChar

StartChar: Q
Encoding: 81 81 28
Width: 930
Flags: HMW
LayerCount: 2
Back
SplineSet
270 375 m 0
 270 193 331 80 465 80 c 0
 609 80 660 193 660 375 c 0
 660 557 599 670 465 670 c 0
 331 670 270 557 270 375 c 0
65 375 m 0
 65 588 202 770 465 770 c 0
 728 770 865 588 865 375 c 0
 865 162 718 -20 465 -20 c 0
 202 -20 65 162 65 375 c 0
354 65 m 5
 299 100 l 5
 259 121 293 353 452 353 c 4
 627 353 631 3 728 3 c 4
 780 3 805 36 815 82 c 5
 905 82 l 5
 905 82 l 5
 894 -32 814 -145 720 -145 c 4
 541 -145 606 180 424 180 c 4
 344 180 304 113 354 65 c 5
EndSplineSet
Fore
SplineSet
550 -16 m 0
 528.043862141 -16 490.84304809 -20 465 -20 c 0
 202 -20 45 142 45 375 c 0
 45 608 202 770 465 770 c 0
 728 770 885 608 885 375 c 0
 885 236 825 122 724 53 c 0
 709 43 700 36 700 29 c 0
 700 18.3078453619 728.848325183 3 748 3 c 0
 782 3 804 18 817 52 c 0
 823 67 818 82 842 82 c 2
 906 82 l 2
 926 82 932 81 932 64 c 0
 932 59 932 52 931 44 c 0
 916 -61 877 -175 740 -175 c 0
 656 -175 617 -123 590 -59 c 0
 575 -23 573 -16 550 -16 c 0
424 180 m 0
 398.816267792 180 363 171.471032461 363 157 c 0
 363 149 374 139 390 129 c 4
 411 116 436 110 465 110 c 0
 485.693201918 110 518 112.847316735 518 124 c 0
 518 129 512 136 503 146 c 0
 484 167 459 180 424 180 c 0
305 375 m 0
 305 352.19973554 306.106265147 274 317 274 c 0
 323 274 332 294 349 311 c 0
 375 336 409 353 452 353 c 0
 510 353 549 315 580 263 c 0
 592 242 599 225 604 225 c 0
 608 225 612 236 617 264 c 4
 623 297 625 334 625 375 c 0
 625 537 579 640 465 640 c 0
 351 640 305 537 305 375 c 0
EndSplineSet
EndChar

StartChar: R
Encoding: 82 82 29
Width: 968
Flags: HMW
LayerCount: 2
Fore
SplineSet
930 81 m 0
 883 21 823 -20 730 -20 c 0
 467 -20 611 310 435 310 c 0
 422 310 411 311 402 311 c 0
 384 311 375 306 375 275 c 2
 375 194 l 2
 375 181 374 170 374 161 c 0
 374 143 379 135 408 135 c 2
 441 135 l 2
 451 135 459 136 465 136 c 0
 478 136 485 132 485 110 c 2
 485 36 l 2
 485 2 484 0 444 0 c 2
 99 0 l 2
 85 0 73 -1 64 -1 c 0
 39 -1 30 5 30 47 c 2
 30 109 l 2
 30 133 32 135 63 135 c 2
 120 135 l 2
 138 135 142 149 142 166 c 0
 142 179 140 194 140 206 c 2
 140 557 l 2
 140 570 141 581 141 589 c 0
 141 608 136 615 105 615 c 2
 66 615 l 2
 34 615 28 625 28 645 c 0
 28 655 30 668 30 683 c 2
 30 711 l 2
 30 746 42 752 63 752 c 0
 74 752 88 750 105 750 c 2
 485 750 l 2
 716 750 815 675 815 555 c 0
 815 480 788 429 717 402 c 4
 681 388 661 384 661 377 c 0
 661 371 675 364 704 348 c 0
 814 287 758 154 814 154 c 0
 827 154 841 163 852 176 c 0
 864 190 868 196 874 196 c 0
 879 196 885 190 900 179 c 2
 930 156 l 2
 948 142 955 132 955 123 c 0
 955 112 945 101 930 81 c 0
408 440 m 2
 485 440 l 2
 541 440 575 476 575 525 c 0
 575 574 541 615 485 615 c 2
 423 615 l 2
 375 615 375 614 375 566 c 2
 375 506 l 2
 375 491 373 478 373 468 c 0
 373 450 379 440 408 440 c 2
EndSplineSet
Substitution2: "'ss01' Style Set 1 lookup 2-1" uniFFFD
EndChar

StartChar: S
Encoding: 83 83 30
Width: 710
Flags: HMW
LayerCount: 2
Fore
SplineSet
551 514 m 4
 530 603 434 634 360 634 c 0
 294 634 256 612 256 578 c 0
 256 458 695 520 695 230 c 0
 695 40 561 -20 380 -20 c 0
 300 -20 245 1 206 31 c 0
 191 42 185 56 177 56 c 0
 173 56 168 52 162 42 c 2
 151 22 l 2
 139 1 139 -5 104 -5 c 2
 56 -5 l 2
 21 -5 20 -3 20 27 c 0
 20 107.333333333 20 187.666666667 20 268 c 0
 20 295 21 295 46 295 c 0
 62.6666666667 295 79.3333333333 295 96 295 c 0
 142 295 131 288 140 252 c 0
 160 173 234 111 340 111 c 0
 426 111 470 136 470 185 c 0
 470 325 35 239 35 529 c 0
 35 699 179 765 310 765 c 0
 383 765 442 744 487 712 c 0
 502 702 509 695 515 695 c 0
 521 695 525 703 537 722 c 0
 548 740 548 750 579 750 c 2
 648 750 l 2
 667 750 670 748 670 720 c 2
 670 506 l 2
 670 476 669 475 642 475 c 0
 621 475 600 475 579 475 c 0
 546 475 557 489 551 514 c 4
EndSplineSet
EndChar

StartChar: T
Encoding: 84 84 31
Width: 785
Flags: HMW
LayerCount: 2
Fore
SplineSet
584 -0 m 2
 231 0 l 2
 217 0 205 -1 196 -1 c 0
 174 -1 165 5 165 42 c 2
 165 105 l 2
 165 132 169 135 187 135 c 0
 201.666666667 135 216.333333333 135 231 135 c 0
 281 135 285 140 285 175 c 0
 285 314.666666667 285 454.333333333 285 594 c 0
 285 619 286 620 260 620 c 0
 176 620 144 597 134 516 c 0
 133 510 133 504 133 498 c 2
 133 479 l 2
 133 455 130 435 93 435 c 2
 39 435 l 2
 13 435 9 441 9 457 c 0
 9 464 10 472 10 483 c 2
 10 714 l 2
 10 746 16 750 36 750 c 2
 732 750 l 2
 774 750 775 749 775 705 c 2
 775 501 l 2
 775 486 776 474 776 465 c 0
 776 444 771 435 735 435 c 2
 696 435 l 2
 643 435 657 458 653 501 c 0
 645 594 614 620 525 620 c 0
 502 620 500 611 500 593 c 0
 500 461.333333333 500 329.666666667 500 198 c 0
 500 184 499 172 499 163 c 0
 499 145 504 135 534 135 c 2
 587 135 l 2
 618 135 620 133 620 93 c 2
 620 48 l 2
 620 4 615 0 584 -0 c 2
EndSplineSet
EndChar

StartChar: U
Encoding: 85 85 32
Width: 900
Flags: HMW
LayerCount: 2
Fore
SplineSet
623 615 m 2
 564 615 l 2
 534 615 529 622 529 640 c 0
 529 647 530 655 530 666 c 2
 530 722 l 2
 530 747 538 751 553 751 c 0
 561 751 570 750 582 750 c 2
 874 750 l 2
 905 750 905 749 905 718 c 2
 905 678 l 2
 905 664 907 652 907 642 c 0
 907 626 902 615 878 615 c 2
 842 615 l 2
 798 615 795 612 795 578 c 0
 795 485.333333333 795 392.666666667 795 300 c 0
 795 85 663 -20 445 -20 c 0
 152 -20 105 127 105 310 c 2
 105 584 l 2
 105 612 99 616 82 616 c 0
 76 616 68 615 58 615 c 2
 18 615 l 2
 -3 615 -6 623 -6 636 c 0
 -6 644 -5 653 -5 664 c 2
 -5 712 l 2
 -5 749 -3 750 29 750 c 0
 147.333333333 750 265.666666667 750 384 750 c 0
 399 750 415 752 428 752 c 0
 447 752 460 748 460 724 c 2
 460 640 l 2
 460 620 457 615 426 615 c 2
 371 615 l 2
 343 615 340 613 340 576 c 2
 340 330 l 2
 340 188 376 127 490 127 c 0
 574 127 655 168 655 300 c 2
 655 580 l 2
 655 614 654 615 623 615 c 2
EndSplineSet
EndChar

StartChar: V
Encoding: 86 86 33
Width: 950
Flags: HMW
LayerCount: 2
Fore
SplineSet
540 216 m 0
 548 242 558 266 574 304 c 6
 688 574 l 2
 694 587 703 598 703 605 c 0
 703 611 697 615 678 615 c 2
 654 615 l 2
 625 615 625 615 625 644 c 2
 625 730 l 2
 625 748 631 751 642 751 c 0
 648 751 655 750 664 750 c 2
 938 750 l 2
 951 750 955 748 955 726 c 2
 955 633 l 2
 955 619 952 615 930 615 c 2
 892 615 l 2
 863 615 858 614 848 592 c 2
 601 34 l 2
 591 11 591 -15 556 -15 c 2
 418 -15 l 2
 370 -15 374 0 360 32 c 2
 126 580 l 2
 115 607 116 615 76 615 c 2
 32 615 l 2
 -2 615 -5 619 -5 643 c 0
 -5 670.666666667 -5 698.333333333 -5 726 c 0
 -5 748 -2 750 12 750 c 0
 154 750 296 750 438 750 c 0
 448 750 458 751 465 751 c 0
 478 751 485 748 485 728 c 2
 485 650 l 2
 485 616 484 615 446 615 c 2
 404 615 l 2
 379 615 372 612 372 605 c 0
 372 598 379 587 385 572 c 2
 484 308 l 2
 493 284 507 243 513 214 c 0
 516 200 520 193 525 193 c 0
 530 193 536 201 540 216 c 0
EndSplineSet
EndChar

StartChar: W
Encoding: 87 87 34
Width: 1290
Flags: HMW
LayerCount: 2
Fore
SplineSet
497 322 m 0
 518 389 543 433 569 487 c 2
 604 560 l 2
 610 572 611 576 606 589 c 2
 601 602 l 2
 596 615 595 615 577 615 c 2
 531 615 l 2
 508 615 504 623 504 637 c 0
 504 645 505 655 505 666 c 2
 505 718 l 2
 505 747 509 750 529 750 c 2
 880 750 l 2
 904 750 905 749 905 722 c 2
 905 644 l 2
 905 618 902 615 884 615 c 0
 875 615 866 615 857 615 c 0
 841 615 834 614 834 606 c 0
 834 604 835 601 836 598 c 2
 869 499 l 2
 886 447 902 396 917 340 c 0
 927 301 932 280 937 280 c 0
 942 280 947 299 957 337 c 0
 971 390 987 438 1004 487 c 2
 1043 600 l 2
 1045 605 1046 609 1046 611 c 0
 1046 615 1042 615 1030 615 c 2
 984 615 l 2
 958 615 955 623 955 650 c 2
 955 724 l 6
 955 742 957 750 974 750 c 2
 1274 750 l 2
 1293 750 1295 748 1295 722 c 2
 1295 664 l 2
 1295 654 1297 644 1297 636 c 0
 1297 624 1293 615 1276 615 c 2
 1204 615 l 2
 1178 615 1179 611 1173 592 c 2
 975 20 l 2
 966 -5 968 -10 934 -10 c 2
 858 -10 l 2
 823 -10 826 2 817 26 c 2
 740 232 l 2
 722 279 705 325 690 376 c 0
 679 415 674 433 668 433 c 0
 662 433 656 413 642 376 c 0
 623 323 602 277 579 229 c 2
 479 20 l 2
 467 -6 466 -10 426 -10 c 2
 364 -10 l 2
 325 -10 328 -3 318 24 c 2
 114 588 l 2
 104 615 101 615 64 615 c 2
 31 615 l 2
 -2 615 -5 619 -5 642 c 0
 -5 669.333333333 -5 696.666666667 -5 724 c 0
 -5 748 -2 750 14 750 c 2
 414 750 l 2
 443 750 445 749 445 716 c 2
 445 658 l 2
 445 648 446 640 446 634 c 0
 446 621 442 615 421 615 c 2
 400 615 l 2
 378 615 371 612 371 605 c 0
 371 599 377 589 381 576 c 2
 409 487 l 2
 426 433 439 387 457 322 c 0
 463 300 469 289 476 289 c 0
 483 289 490 300 497 322 c 0
EndSplineSet
EndChar

StartChar: X
Encoding: 88 88 35
Width: 920
Flags: HMW
LayerCount: 2
Fore
SplineSet
69 615 m 6
 39 615 l 2
 9 615 4 623 4 641 c 0
 4 649 5 659 5 671 c 2
 5 728 l 2
 5 748 13 751 25 751 c 0
 32 751 41 750 51 750 c 2
 420 750 l 2
 432 750 442 751 450 751 c 0
 468 751 475 746 475 716 c 2
 475 648 l 2
 475 619 472 615 432 615 c 2
 405 615 l 2
 390 615 385 613 385 609 c 0
 385 603 401 593 409 584 c 2
 462 527 l 2
 479 508 489 500 498 500 c 0
 509 500 519 514 540 536 c 2
 583 581 l 2
 597 595 608 604 608 609 c 0
 608 614 596 615 564 615 c 0
 528 615 525 620 525 644 c 2
 525 723 l 2
 525 747 528 750 561 750 c 2
 858 750 l 2
 867 750 876 751 882 751 c 0
 894 751 900 748 900 728 c 2
 900 668 l 2
 900 657 901 648 901 641 c 0
 901 622 896 615 864 615 c 2
 831 615 l 2
 798 615 790 612 774 597 c 2
 609 435 l 2
 593 420 583 413 583 404 c 0
 583 398 587 391 597 380 c 2
 783 179 l 2
 803 158 810 135 852 135 c 0
 867 135 881 137 891 137 c 0
 910 137 920 131 920 101 c 2
 920 35 l 2
 920 4 917 0 873 0 c 2
 489 0 l 2
 453 0 450 3 450 29 c 0
 450 53 450 77 450 101 c 0
 450 132 455 135 474 135 c 2
 498 135 l 2
 524 135 533 137 533 142 c 0
 533 148 520 157 508 170 c 2
 448 236 l 2
 431 254 422 262 414 262 c 0
 404 262 395 251 375 230 c 2
 330 182 l 2
 319 170 292 153 292 143 c 0
 292 138 298 135 315 135 c 2
 353 135 l 2
 378 135 380 133 380 101 c 2
 380 53 l 2
 380 0 380 0 327 0 c 2
 21 -0 l 2
 5 0 0 3 0 29 c 2
 0 83 l 2
 0 95 -1 104 -1 112 c 0
 -1 127 3 135 27 135 c 2
 66 135 l 2
 112 135 116 145 138 166 c 2
 294 320 l 2
 314 340 324 350 324 360 c 0
 324 370 314 380 295 401 c 2
 122 590 l 2
 106 607 104 615 69 615 c 6
EndSplineSet
EndChar

StartChar: Y
Encoding: 89 89 36
Width: 885
Flags: HMW
LayerCount: 2
Fore
SplineSet
60 615 m 2
 14 615 l 2
 -7 615 -10 619 -10 632 c 0
 -10 662.333333333 -10 692.666666667 -10 723 c 0
 -10 747 6 750 28 750 c 2
 426 750 l 2
 459 750 460 748 460 720 c 2
 460 633 l 2
 460 619 457 615 434 615 c 2
 373 615 l 6
 366 615 364 614 364 611 c 0
 364 605 377 594 386 581 c 2
 422 527 l 2
 438 503 453 479 467 453 c 0
 477 434 481 423 487 423 c 0
 491 423 496 429 506 443 c 0
 527 472 549 499 570 527 c 2
 615 585 l 2
 624 596 633 604 633 609 c 0
 633 613 626 615 606 615 c 2
 570 615 l 2
 538 615 535 619 535 641 c 0
 535 671 535 701 535 731 c 0
 535 748 542 751 553 751 c 0
 559 751 567 750 576 750 c 2
 879 750 l 2
 892 750 895 748 895 727 c 2
 895 632 l 2
 895 620 893 615 872 615 c 2
 842 615 l 2
 815 615 813 611 802 597 c 2
 596 341 l 2
 579 320 570 313 570 271 c 2
 570 159 l 2
 570 140 573 135 604 135 c 2
 662 135 l 2
 688 135 690 133 690 113 c 2
 690 30 l 2
 690 4 687 0 650 0 c 2
 250 -0 l 2
 229 0 225 3 225 35 c 2
 225 119 l 2
 225 132 227 135 248 135 c 2
 299 135 l 2
 334 135 335 135 335 173 c 2
 335 227 l 2
 335 265 325 274 310 295 c 2
 105 595 l 2
 93 612 90 615 60 615 c 2
EndSplineSet
EndChar

StartChar: Z
Encoding: 90 90 37
Width: 815
Flags: HMW
LayerCount: 2
Fore
SplineSet
55 478 m 6
 55 718 l 2
 55 749 54 750 86 750 c 2
 694 750 l 2
 705 750 714 752 723 752 c 0
 736 752 745 748 745 730 c 2
 745 630 l 2
 745 573 727 568 700 542 c 2
 388 243 l 2
 362 218 337 196 308 174 c 0
 291 161 264 149 264 142 c 0
 264 138 274 135 302 135 c 0
 369.666666667 135 437.333333333 135 505 135 c 0
 600 135 644 193 653 302 c 0
 656 340 651 345 694 345 c 2
 742 345 l 2
 773 345 775 342 775 320 c 2
 775 27 l 2
 775 4 772 0 738 0 c 2
 72 0 l 2
 25 0 25 1 25 48 c 2
 25 116 l 2
 25 160 29 169 50 189 c 2
 402 526 l 2
 426 549 451 568 478 588 c 0
 494 600 506 606 506 610 c 0
 506 614 495 615 464 615 c 0
 414.333333333 615 364.666666667 615 315 615 c 0
 230 615 192 569 180 492 c 0
 173 450 189 425 136 425 c 2
 92 425 l 2
 59 425 54 432 54 452 c 0
 54 459 55 467 55 478 c 6
EndSplineSet
EndChar

StartChar: a
Encoding: 97 97 38
Width: 701
VWidth: 1155
Flags: HMW
LayerCount: 2
Fore
SplineSet
269 384 m 0
 269 330 218 300 164 300 c 0
 98 300 55 329 55 383 c 0
 55 480 177 535 318 535 c 0
 468 535 566 493 566 352 c 2
 566 136 l 2
 566 116 574 107 593 107 c 0
 606 107 615 112 624 124 c 0
 631 134 633 138 637 138 c 0
 640 138 645 135 654 130 c 2
 688 109 l 2
 698 103 702 97 702 91 c 0
 702 84 697 76 690 65 c 0
 651 2 579 -15 516 -15 c 0
 460 -15 422 2 398 27 c 0
 385 41 381 48 377 48 c 0
 373 48 368 42 354 30 c 0
 318 0 269 -15 210 -15 c 0
 101 -15 15 24 15 118 c 0
 15 242 132 294 344 294 c 0
 355 294 356 302 356 311 c 0
 356 328 356 345 356 362 c 0
 356 409 333 444 293 444 c 0
 279 444 252 444 252 434 c 0
 252 423 269 422 269 384 c 0
356 194 m 4
 356 209 354 217 342 217 c 0
 339 217 335 216 330 215 c 0
 283 204 252 171 252 141 c 0
 252 114 265 99 290 99 c 0
 338 99 356 123 356 194 c 4
EndSplineSet
EndChar

StartChar: b
Encoding: 98 98 39
Width: 728
VWidth: 1155
Flags: HMW
LayerCount: 2
Fore
SplineSet
68 675 m 2
 30 675 l 2
 5 675 5 675 5 700 c 2
 5 764 l 2
 5 778 7 780 16 780 c 0
 102 780 188 780 274 780 c 0
 299 780 305 774 305 748 c 2
 305 504 l 2
 305 476 307 467 311 467 c 0
 315 467 321 477 330 487 c 0
 359 520 404 539 471 539 c 0
 600 539 693 440 693 260 c 0
 693 80 590 -20 461 -20 c 0
 401 -20 359 -2 334 31 c 4
 322 47 315 63 310 63 c 0
 307 63 305 54 305 28 c 2
 305 17 l 2
 305 2 303 0 282 0 c 2
 50 0 l 2
 40 0 31 -1 24 -1 c 0
 12 -1 5 2 5 22 c 2
 5 88 l 2
 5 104 7 105 28 105 c 2
 68 105 l 2
 95 105 95 105 95 132 c 2
 95 651 l 2
 95 674 94 675 68 675 c 2
305 260 m 0
 305 166 342 102 393 102 c 0
 437 102 473 166 473 260 c 0
 473 354 437 418 393 418 c 0
 342 418 305 354 305 260 c 0
EndSplineSet
EndChar

StartChar: c
Encoding: 99 99 40
Width: 625
VWidth: 1155
Flags: HMW
LayerCount: 2
Fore
SplineSet
594 372 m 0
 594 294 540 250 471 250 c 0
 394 250 354 291 354 348 c 0
 354 394 395 409 395 426 c 0
 395 439 382 449 354 449 c 0
 289 449 250 384 250 270 c 0
 250 176 266 83 335 83 c 0
 380 83 407 104 430 147 c 0
 441 167 439 173 472 173 c 6
 534 173 l 2
 564 173 575 171 575 160 c 0
 575 154 572 146 568 134 c 0
 530 25 431 -20 313 -20 c 0
 112 -20 15 110 15 250 c 0
 15 400 123 540 334 540 c 0
 496 540 594 459 594 372 c 0
EndSplineSet
EndChar

StartChar: d
Encoding: 100 100 41
Width: 728
VWidth: 1155
Flags: HMW
LayerCount: 2
Fore
SplineSet
723 70 m 2
 723 22 l 2
 723 2 721 0 694 0 c 2
 446 0 l 2
 425 0 423 3 423 17 c 0
 423 25 423 33 423 41 c 0
 423 57 421 63 418 63 c 0
 413 63 407 51 402 42 c 0
 379 -1 330 -20 257 -20 c 0
 128 -20 35 79 35 259 c 0
 35 439 138 539 267 539 c 0
 330 539 372 519 397 486 c 0
 406 474 412 462 417 462 c 0
 421 462 423 470 423 494 c 2
 423 654 l 2
 423 674 421 675 407 675 c 2
 362 675 l 2
 333 675 333 675 333 704 c 2
 333 756 l 2
 333 779 334 780 362 780 c 2
 604 780 l 2
 631 780 633 778 633 758 c 2
 633 133 l 2
 633 110 635 105 664 105 c 2
 690 105 l 2
 724 105 723 104 723 70 c 2
423 259 m 0
 423 353 386 417 335 417 c 0
 291 417 255 353 255 259 c 0
 255 165 291 101 335 101 c 0
 386 101 423 165 423 259 c 0
EndSplineSet
EndChar

StartChar: e
Encoding: 101 101 42
Width: 649
VWidth: 1155
Flags: HMW
LayerCount: 2
Back
SplineSet
220 270 m 4
 220 146 245 60 314 60 c 4
 383 60 408 146 408 250 c 4
 408 374 383 460 314 460 c 4
 245 460 220 374 220 270 c 4
35 245 m 4
 35 405 123 540 314 540 c 4
 505 540 593 410 593 270 c 4
 593 110 505 -20 314 -20 c 4
 123 -20 35 105 35 245 c 4
EndSplineSet
Fore
SplineSet
583 226 m 2
 289 226 l 6
 268 226 258 224 258 208 c 0
 258 206 259 205 259 203 c 0
 265 136 286 83 355 83 c 0
 403 83 431 107 454 156 c 0
 461 170 461 173 483 173 c 2
 570 173 l 2
 590 173 596 171 596 164 c 0
 596 159 593 152 590 142 c 0
 554 27 454 -20 333 -20 c 0
 132 -20 35 110 35 250 c 0
 35 410 139 540 340 540 c 0
 564 540 602 391 608 267 c 0
 608 257 610 249 610 243 c 0
 610 230 605 226 583 226 c 2
399 353 m 1
 395 403 381 441 339 441 c 0
 289 441 269 407 261 355 c 0
 260 348 258 342 258 338 c 0
 258 332 262 329 276 329 c 2
 375 329 l 2
 394 329 399 329 399 342 c 2
 399 353 l 1
EndSplineSet
EndChar

StartChar: f
Encoding: 102 102 43
Width: 465
VWidth: 1155
Flags: HMW
LayerCount: 2
Fore
SplineSet
320 400 m 2
 320 136 l 2
 320 106 319 105 350 105 c 2
 416 105 l 2
 438 105 440 102 440 79 c 2
 440 16 l 2
 440 4 438 0 418 0 c 2
 41 -0 l 2
 25 0 20 3 20 30 c 2
 20 80 l 2
 20 104 19 105 44 105 c 2
 84 105 l 2
 107 105 110 110 110 124 c 0
 110 213.333333333 110 302.666666667 110 392 c 0
 110 414 109 415 92 415 c 0
 74 415 56 415 38 415 c 0
 22 415 20 418 20 428 c 0
 20 450.666666667 20 473.333333333 20 496 c 0
 20 520 20 520 44 520 c 2
 86 520 l 2
 108 520 110 523 110 537 c 0
 110 548.666666667 110 560.333333333 110 572 c 0
 110 683 207 800 407 800 c 0
 568 800 640 731 640 654 c 0
 640 574 585 543 523 543 c 0
 451 543 403 581 403 636 c 0
 403 683 439 694 439 705 c 0
 439 712 425 713 415 713 c 0
 375 713 320 677 320 550 c 2
 320 536 l 2
 320 519 321 520 338 520 c 2
 420 520 l 2
 436 520 440 517 440 500 c 2
 440 434 l 2
 440 420 438 415 418 415 c 2
 340 415 l 2
 322 415 320 412 320 400 c 2
EndSplineSet
EndChar

StartChar: g
Encoding: 103 103 44
Width: 752
VWidth: 1155
Flags: HMW
LayerCount: 2
Back
SplineSet
717 444 m 5
 610 472 l 5
 610 479 605 482 594 482 c 4
 566 482 523 447 513 380 c 5
 453 402 l 5
 473 493 523 540 593 540 c 4
 674 540 717 506 717 444 c 5
581 423 m 4
 581 457 610 463 610 472 c 5
 717 444 l 5
 717 395 684 364 644 364 c 4
 601 364 581 393 581 423 c 4
270 22 m 1
 210 -4 180 -50 180 -102 c 0
 180 -160 240 -183 316 -183 c 0
 400 -183 469 -159 469 -97 c 1
 620 -62 l 1
 620 -203 480 -265 300 -265 c 0
 117 -265 25 -220 25 -135 c 0
 25 -44 155 12 200 12 c 1
 270 22 l 1
77 84 m 1
 190 121 l 1
 190 100 207 99 262 99 c 0
 287 99 405 100 433 100 c 0
 548 100 620 54 620 -62 c 1
 469 -97 l 1
 469 -53 435 -39 370 -39 c 0
 349 -39 298 -39 276 -39 c 0
 186 -39 77 -8 77 84 c 1
310 168 m 1
 267 168 190 145 190 121 c 1
 77 84 l 1
 77 158 197 217 312 207 c 1
 310 168 l 1
70 345 m 0
 70 455 158 540 309 540 c 0
 460 540 548 455 548 345 c 0
 548 235 460 150 309 150 c 0
 158 150 70 235 70 345 c 0
245 345 m 0
 245 271 260 220 309 220 c 0
 358 220 373 271 373 345 c 0
 373 419 358 470 309 470 c 0
 260 470 245 419 245 345 c 0
EndSplineSet
Fore
SplineSet
265 355 m 0
 265 301 275 260 309 260 c 0
 343 260 353 301 353 355 c 0
 353 409 343 450 309 450 c 0
 275 450 265 409 265 355 c 0
243 175 m 0
 228.722215737 175 220 162.497568861 220 147 c 0
 220 133 227 119 262 119 c 0
 287 119 405 120 433 120 c 0
 548 120 620 54 620 -62 c 0
 620 -203 480 -265 300 -265 c 0
 117 -265 5 -220 5 -135 c 0
 5 -92 39 -59 86 -36 c 0
 107 -26 116 -23 116 -19 c 0
 116 -14 105 -9 89 8 c 4
 69 29 57 55 57 84 c 0
 57 128 82 162 119 186 c 0
 138 198 147 202 147 206 c 0
 147 210 138 214 121 228 c 0
 83 259 60 301 60 355 c 0
 60 475 178 540 309 540 c 0
 366 540 419 528 460 504 c 0
 475 495 481 490 487 490 c 0
 493 490 499 495 513 504 c 0
 550 529 595 540 633 540 c 0
 694 540 752 506 752 444 c 0
 752 375 704 344 654 344 c 0
 601 344 571 378 571 408 c 0
 571 452 599 453 599 464 c 0
 599 468 598 470 592 470 c 0
 576.358931117 470 539 443.831095919 539 423 c 0
 539 403.225391238 548 378.147192421 548 355 c 0
 548 235 440 170 309 170 c 0
 287.510132025 170 263.331498164 175 243 175 c 0
266 -59 m 2
 253.687523893 -59 238.284879097 -57 227 -57 c 0
 212 -57 205 -61 197 -76 c 0
 192 -84 190 -93 190 -102 c 0
 190 -150 240 -163 316 -163 c 0
 400 -163 446 -143 446 -101 c 0
 446 -67 425 -59 360 -59 c 2
 266 -59 l 2
EndSplineSet
EndChar

StartChar: h
Encoding: 104 104 45
Width: 740
VWidth: 1155
Flags: HMW
LayerCount: 2
Fore
SplineSet
77 675 m 6
 19 675 l 6
 7 675 5 676 5 693 c 6
 5 754 l 6
 5 779 7 780 26 780 c 4
 101.666666667 780 177.333333333 780 253 780 c 4
 285 780 285 779 285 747 c 6
 285 552 l 6
 285 528 284 510 284 499 c 4
 284 488 285 483 288 483 c 4
 291 483 297 487 305 495 c 4
 332 520 389 540 448 540 c 4
 565 540 630 476 630 369 c 6
 630 133 l 6
 630 105 630 105 658 105 c 6
 705 105 l 6
 718 105 720 104 720 85 c 6
 720 27 l 6
 720 1 721 0 694 0 c 6
 395 0 l 6
 370 0 370 0 370 25 c 6
 370 86 l 6
 370 101 371 105 389 105 c 6
 406 105 l 6
 419 105 421 111 421 120 c 4
 421 126 420 134 420 141 c 6
 420 353 l 6
 420 407 406 423 375 423 c 4
 337 423 285 386 285 283 c 6
 285 116 l 6
 285 109 287 105 299 105 c 6
 314 105 l 6
 332 105 335 102 335 83 c 6
 335 16 l 6
 335 0 334 0 318 0 c 6
 30 0 l 6
 7 0 5 2 5 19 c 4
 5 39 5 59 5 79 c 4
 5 105 5 105 31 105 c 6
 68 105 l 6
 92 105 96 112 96 126 c 4
 96 133 95 141 95 151 c 6
 95 650 l 6
 95 673 92 675 77 675 c 6
EndSplineSet
EndChar

StartChar: i
Encoding: 105 105 46
Width: 410
VWidth: 1155
Flags: HMW
LayerCount: 2
Fore
SplineSet
85 690 m 0
 85 758 139 795 205 795 c 0
 271 795 325 758 325 690 c 0
 325 622 271 585 205 585 c 0
 139 585 85 622 85 690 c 0
81 415 m 2
 38 415 l 2
 17 415 15 418 15 431 c 0
 15 450 15 469 15 488 c 0
 15 518 18 520 39 520 c 0
 120 520 201 520 282 520 c 0
 314 520 315 516 315 483 c 6
 315 125 l 2
 315 106 316 105 338 105 c 2
 368 105 l 2
 376 105 384 106 389 106 c 0
 400 106 405 103 405 84 c 2
 405 34 l 2
 405 1 403 0 375 -0 c 2
 35 -0 l 2
 18 0 15 2 15 26 c 2
 15 78 l 2
 15 103 17 105 35 105 c 0
 51.3333333333 105 67.6666666667 105 84 105 c 0
 103 105 106 110 106 121 c 0
 106 126 105 132 105 140 c 2
 105 388 l 2
 105 414 104 415 81 415 c 2
EndSplineSet
EndChar

StartChar: j
Encoding: 106 106 47
Width: 380
VWidth: 1155
Flags: HMW
LayerCount: 2
Back
SplineSet
-125 -131 m 1
 0 -180 l 1
 0 -192 12 -207 36 -207 c 0
 126 -207 100 -23 100 104 c 1
 230 11 l 1
 230 -120 183 -262 33 -262 c 0
 -88 -262 -125 -198 -125 -131 c 1
32 -113 m 0
 32 -163 0 -165 0 -180 c 1
 -125 -131 l 1
 -125 -78 -88 -45 -43 -45 c 0
 2 -45 32 -75 32 -113 c 0
75 700 m 0
 75 744 108 780 160 780 c 0
 212 780 245 744 245 700 c 0
 245 656 212 620 160 620 c 0
 108 620 75 656 75 700 c 0
10 520 m 5
 100 520 l 5
 100 455 l 5
 10 455 l 5
 10 520 l 5
100 520 m 1
 230 520 l 1
 230 11 l 1
 100 104 l 1
 100 520 l 1
EndSplineSet
Fore
SplineSet
90 690 m 0
 90 758 144 795 210 795 c 0
 276 795 330 758 330 690 c 0
 330 622 276 585 210 585 c 0
 144 585 90 622 90 690 c 0
41 520 m 2
 294 520 l 2
 317 520 320 517 320 493 c 2
 320 -32 l 2
 320 -193 203 -260 53 -260 c 0
 -68 -260 -165 -211 -165 -114 c 0
 -165 -54 -115 -8 -53 -8 c 0
 19 -8 67 -51 67 -96 c 0
 67 -153 27 -151 27 -162 c 0
 27 -170 33 -175 51 -175 c 0
 106 -175 118 -142 118 -90 c 0
 118 -47 110 8 110 70 c 2
 110 394 l 2
 110 413 108 415 82 415 c 2
 42 415 l 2
 22 415 20 421 20 436 c 0
 20 456 20 476 20 496 c 0
 20 519 21 520 41 520 c 2
EndSplineSet
EndChar

StartChar: k
Encoding: 107 107 48
Width: 776
VWidth: 1155
Flags: HMW
LayerCount: 2
Fore
SplineSet
66 675 m 2
 27 675 l 2
 9 675 5 678 5 705 c 2
 5 738 l 2
 5 776 11 780 35 780 c 0
 108.333333333 780 181.666666667 780 255 780 c 0
 301 780 305 775 305 742 c 0
 305 611.666666667 305 481.333333333 305 351 c 0
 305 323 306 314 312 314 c 0
 316 314 324 320 336 327 c 0
 359 341 449 381 449 398 c 0
 449 402 442 405 426 405 c 2
 405 405 l 2
 386 405 383 411 383 422 c 0
 383 428 384 435 384 444 c 2
 384 489 l 2
 384 517 388 520 406 520 c 2
 705 520 l 2
 736 520 737 520 737 486 c 2
 737 435 l 2
 737 407 734 405 715 405 c 0
 703.666666667 405 692.333333333 405 681 405 c 0
 644 405 636 398 615 384 c 2
 543 336 l 2
 519 320 506 313 506 303 c 0
 506 296 512 288 525 273 c 2
 638 141 l 2
 658 117 661 105 708 105 c 2
 747 105 l 2
 769 105 771 96 771 78 c 2
 771 25 l 2
 771 1 770 0 741 0 c 2
 422 -0 l 2
 391 0 389 2 389 39 c 2
 389 75 l 2
 389 105 390 105 418 105 c 2
 420 105 l 2
 429 105 433 106 433 109 c 0
 433 114 421 123 415 129 c 2
 326 234 l 2
 317 244 312 252 309 252 c 0
 306 252 305 245 305 225 c 2
 305 127 l 2
 305 106 306 105 330 105 c 0
 353 105 355 103 355 86 c 0
 355 65.3333333333 355 44.6666666667 355 24 c 0
 355 3 349 -1 336 -1 c 0
 330 -1 322 0 312 0 c 2
 24 -0 l 2
 9 0 5 3 5 27 c 2
 5 79 l 2
 5 103 7 105 39 105 c 2
 78 105 l 2
 95 105 95 106 95 123 c 2
 95 654 l 2
 95 671 92 675 66 675 c 2
EndSplineSet
EndChar

StartChar: l
Encoding: 108 108 49
Width: 400
VWidth: 1155
Flags: HMW
LayerCount: 2
Fore
SplineSet
68 675 m 2
 28 675 l 2
 7 675 5 680 5 692 c 0
 5 711 5 730 5 749 c 4
 5 777 7 780 34 780 c 2
 280 780 l 2
 300 780 305 777 305 746 c 2
 305 142 l 2
 305 107 307 105 335 105 c 2
 378 105 l 2
 394 105 395 103 395 82 c 2
 395 26 l 2
 395 0 394 0 370 -0 c 0
 258 -0 146 0 34 0 c 0
 5 0 5 1 5 30 c 2
 5 88 l 2
 5 104 7 105 28 105 c 2
 72 105 l 2
 93 105 97 114 97 128 c 0
 97 137 95 148 95 160 c 2
 95 643 l 2
 95 670 95 675 68 675 c 2
EndSplineSet
EndChar

StartChar: m
Encoding: 109 109 50
Width: 1090
VWidth: 1155
Flags: HMW
LayerCount: 2
Back
SplineSet
260 420 m 5
 100 420 l 5
 100 520 l 5
 260 520 l 5
 260 420 l 5
922 75 m 5
 1003 75 l 5
 1003 0 l 5
 922 0 l 5
 922 75 l 5
679 75 m 5
 752 75 l 5
 752 0 l 5
 679 0 l 5
 679 75 l 5
752 358 m 5
 922 369 l 5
 922 0 l 5
 752 0 l 5
 752 358 l 5
366 75 m 5
 426 75 l 5
 426 0 l 5
 366 0 l 5
 366 75 l 5
752 358 m 5
 752 412 743 448 697 448 c 4
 629 448 596 386 596 283 c 5
 557 283 l 5
 557 395 587 540 750 540 c 4
 877 540 922 476 922 369 c 5
 752 358 l 5
596 75 m 5
 657 75 l 5
 657 0 l 5
 596 0 l 5
 596 75 l 5
426 358 m 5
 596 369 l 5
 596 0 l 5
 426 0 l 5
 426 358 l 5
270 75 m 5
 343 75 l 5
 343 0 l 5
 270 0 l 5
 270 75 l 5
100 520 m 5
 270 420 l 5
 270 0 l 5
 100 0 l 5
 100 520 l 5
20 520 m 5
 100 520 l 5
 100 445 l 5
 20 445 l 5
 20 520 l 5
20 75 m 5
 100 75 l 5
 100 0 l 5
 20 0 l 5
 20 75 l 5
426 358 m 5
 426 412 417 448 371 448 c 4
 293 448 270 386 270 283 c 5
 231 283 l 5
 231 395 261 540 424 540 c 4
 551 540 596 476 596 369 c 5
 426 358 l 5
EndSplineSet
Fore
SplineSet
110 134 m 2
 110 392 l 2
 110 414 109 415 84 415 c 2
 46 415 l 2
 22 415 20 418 20 435 c 2
 20 502 l 2
 20 517 22 520 44 520 c 2
 272 520 l 2
 278 520 284 521 288 521 c 0
 296 521 300 518 300 504 c 2
 300 479 l 6
 300 467 302 462 305 462 c 0
 309 462 315 471 323 482 c 4
 347 517 397 540 468 540 c 0
 532 540 580 521 611 486 c 0
 625 470 629 462 633 462 c 0
 637 462 641 470 656 485 c 0
 687 518 733 540 798 540 c 0
 915 540 980 476 980 369 c 2
 980 146 l 2
 980 137 979 130 979 124 c 0
 979 111 983 105 1005 105 c 2
 1045 105 l 2
 1069 105 1070 104 1070 85 c 2
 1070 18 l 2
 1070 4 1068 0 1045 0 c 2
 737 -0 l 2
 727 0 725 1 725 16 c 2
 725 81 l 2
 725 96 726 105 743 105 c 2
 754 105 l 2
 769 105 770 107 770 117 c 0
 770 195.666666667 770 274.333333333 770 353 c 0
 770 407 756 423 725 423 c 0
 697 423 650 386 650 283 c 2
 650 118 l 2
 650 106 651 105 667 105 c 2
 677 105 l 2
 695 105 695 95 695 77 c 2
 695 19 l 2
 695 0 694 0 677 -0 c 2
 415 -0 l 2
 395 0 395 0 395 22 c 2
 395 84 l 2
 395 105 395 105 416 105 c 2
 429 105 l 2
 444 105 440 112 440 125 c 2
 440 353 l 2
 440 407 426 423 395 423 c 0
 367 423 320 386 320 283 c 2
 320 119 l 2
 320 109 322 105 339 105 c 2
 353 105 l 2
 368 105 365 99 365 85 c 2
 365 13 l 2
 365 1 364 0 348 0 c 2
 43 0 l 2
 22 0 20 2 20 17 c 0
 20 37.6666666667 20 58.3333333333 20 79 c 0
 20 104 22 105 41 105 c 0
 58.6666666667 105 76.3333333333 105 94 105 c 0
 108 105 111 109 111 118 c 0
 111 122 110 128 110 134 c 2
EndSplineSet
EndChar

StartChar: n
Encoding: 110 110 51
Width: 775
VWidth: 1155
Flags: HMW
LayerCount: 2
Fore
SplineSet
110 126 m 2
 110 392 l 2
 110 415 109 415 88 415 c 0
 74.6666666667 415 61.3333333333 415 48 415 c 0
 22 415 20 417 20 436 c 0
 20 456.666666667 20 477.333333333 20 498 c 0
 20 518 22 520 36 520 c 0
 111.333333333 520 186.666666667 520 262 520 c 4
 268 520 274 521 280 521 c 0
 291 521 300 518 300 504 c 2
 300 486 l 2
 300 461 301 452 305 452 c 0
 310 452 318 466 332 482 c 0
 363 517 412 540 483 540 c 0
 600 540 665 476 665 369 c 2
 665 124 l 2
 665 107 667 105 690 105 c 2
 728 105 l 2
 752 105 755 101 755 86 c 2
 755 20 l 2
 755 2 754 0 730 0 c 2
 430 0 l 2
 407 0 405 4 405 18 c 0
 405 38 405 58 405 78 c 0
 405 84 404 89 404 93 c 0
 404 101 407 105 420 105 c 2
 440 105 l 2
 453 105 455 108 455 116 c 0
 455 195 455 274 455 353 c 0
 455 407 441 423 410 423 c 0
 372 423 320 386 320 283 c 2
 320 118 l 2
 320 108 322 105 338 105 c 2
 350 105 l 2
 368 105 371 100 371 89 c 0
 371 84 370 78 370 70 c 2
 370 32 l 2
 370 3 366 0 346 -0 c 0
 244.666666667 -0 143.333333333 0 42 0 c 0
 22 0 19 6 19 18 c 0
 19 24 20 31 20 40 c 2
 20 80 l 2
 20 103 23 105 38 105 c 0
 52.6666666667 105 67.3333333333 105 82 105 c 0
 108 105 110 108 110 126 c 2
EndSplineSet
EndChar

StartChar: o
Encoding: 111 111 52
Width: 668
VWidth: 1155
Flags: HMW
LayerCount: 2
Fore
SplineSet
35 245 m 0
 35 405 143 540 334 540 c 0
 525 540 633 410 633 270 c 0
 633 110 525 -20 334 -20 c 0
 143 -20 35 105 35 245 c 0
260 270 m 0
 260 166 275 80 334 80 c 0
 393 80 408 166 408 250 c 0
 408 354 393 440 334 440 c 0
 275 440 260 354 260 270 c 0
EndSplineSet
EndChar

StartChar: p
Encoding: 112 112 53
Width: 728
VWidth: 1155
Flags: HMW
LayerCount: 2
Fore
SplineSet
5 448 m 2
 5 494 l 2
 5 517 10 520 24 520 c 0
 103.333333333 520 182.666666667 520 262 520 c 0
 269 520 277 521 284 521 c 0
 296 521 305 518 305 504 c 2
 305 482 l 2
 305 462 306 455 309 455 c 0
 314 455 322 475 330 488 c 0
 351 521 404 540 471 540 c 0
 600 540 693 441 693 261 c 0
 693 81 590 -19 461 -19 c 0
 405 -19 374 -1 344 23 c 4
 325 38 315 60 310 60 c 0
 306 60 305 49 305 18 c 2
 305 -110 l 2
 305 -120 304 -128 304 -134 c 0
 304 -150 308 -155 334 -155 c 2
 372 -155 l 2
 393 -155 395 -160 395 -172 c 0
 395 -190 395 -208 395 -226 c 0
 395 -256 388 -261 370 -261 c 0
 363 -261 353 -260 342 -260 c 2
 54 -260 l 2
 43 -260 35 -261 28 -261 c 0
 11 -261 5 -257 5 -228 c 2
 5 -190 l 2
 5 -157 7 -155 46 -155 c 2
 66 -155 l 2
 92 -155 96 -149 96 -133 c 0
 96 -126 95 -118 95 -108 c 2
 95 386 l 2
 95 414 94 415 69 415 c 2
 35 415 l 2
 7 415 5 416 5 448 c 2
305 261 m 0
 305 167 342 103 393 103 c 0
 437 103 473 167 473 261 c 0
 473 355 437 419 393 419 c 0
 342 419 305 355 305 261 c 0
EndSplineSet
EndChar

StartChar: q
Encoding: 113 113 54
Width: 728
VWidth: 1155
Flags: HMW
LayerCount: 2
Back
SplineSet
423 -165 m 5
 423 -250 l 5
 333 -250 l 5
 333 -165 l 5
 423 -165 l 5
423 260 m 4
 423 354 386 438 315 438 c 4
 251 438 215 354 215 260 c 4
 215 166 251 82 315 82 c 4
 386 82 423 166 423 260 c 4
452 260 m 4
 452 108 408 -20 267 -20 c 4
 138 -20 35 80 35 260 c 4
 35 440 148 539 277 539 c 4
 408 539 452 412 452 260 c 4
683 -165 m 5
 683 -250 l 5
 593 -250 l 5
 593 -165 l 5
 683 -165 l 5
683 520 m 5
 683 435 l 5
 593 435 l 5
 593 520 l 5
 683 520 l 5
593 520 m 5
 593 -250 l 5
 423 -250 l 5
 423 520 l 5
 593 520 l 5
EndSplineSet
Fore
SplineSet
662 -155 m 2
 704 -155 l 2
 719 -155 723 -158 723 -182 c 2
 723 -238 l 2
 723 -255 720 -260 692 -260 c 2
 370 -260 l 2
 333 -260 333 -259 333 -222 c 2
 333 -178 l 2
 333 -158 335 -155 364 -155 c 2
 396 -155 l 2
 420 -155 424 -149 424 -135 c 0
 424 -129 423 -121 423 -112 c 2
 423 26 l 2
 423 53 420 63 416 63 c 0
 409 63 399 39 387 25 c 4
 361 -6 318 -19 257 -19 c 0
 128 -19 35 80 35 260 c 0
 35 440 138 540 267 540 c 0
 329 540 371 526 393 490 c 0
 400 479 410 458 417 458 c 0
 421 458 423 465 423 484 c 2
 423 496 l 2
 423 518 425 520 441 520 c 0
 520.666666667 520 600.333333333 520 680 520 c 0
 690 520 697 521 704 521 c 0
 716 521 723 518 723 498 c 2
 723 432 l 2
 723 420 721 415 700 415 c 2
 654 415 l 2
 635 415 632 410 632 399 c 0
 632 394 633 388 633 380 c 2
 633 -134 l 2
 633 -151 636 -155 662 -155 c 2
423 260 m 0
 423 354 386 418 335 418 c 0
 291 418 255 354 255 260 c 0
 255 166 291 102 335 102 c 0
 386 102 423 166 423 260 c 0
EndSplineSet
EndChar

StartChar: r
Encoding: 114 114 55
Width: 643
VWidth: 1155
Flags: HMW
LayerCount: 2
Fore
SplineSet
374 0 m 2
 36 -0 l 2
 18 0 15 2 15 29 c 2
 15 79 l 2
 15 103 18 105 35 105 c 0
 49.3333333333 105 63.6666666667 105 78 105 c 0
 103 105 105 108 105 126 c 0
 105 214.333333333 105 302.666666667 105 391 c 0
 105 413 102 415 88 415 c 0
 74 415 60 415 46 415 c 0
 18 415 14 421 14 438 c 0
 14 445 15 453 15 463 c 2
 15 495 l 2
 15 518 24 520 44 520 c 2
 304 520 l 2
 313 520 315 518 315 504 c 2
 315 497 l 2
 315 479 317 473 321 473 c 0
 327 473 337 487 347 496 c 0
 379 522 422 540 480 540 c 0
 574 540 643 494 643 406 c 0
 643 354 606 280 521 280 c 0
 457 280 410 315 410 366 c 0
 410 413 440 424 440 436 c 0
 440 441 436 446 425 446 c 0
 377 446 315 366 315 263 c 2
 315 133 l 2
 315 106 316 105 348 105 c 2
 380 105 l 2
 402 105 406 98 406 85 c 0
 406 79 405 71 405 61 c 2
 405 28 l 2
 405 1 404 0 374 0 c 2
EndSplineSet
EndChar

StartChar: s
Encoding: 115 115 56
Width: 570
VWidth: 1155
Flags: HMW
LayerCount: 2
Fore
SplineSet
420 360 m 0
 398 421 338 446 293 446 c 0
 270 446 235 443 235 416 c 0
 235 326 550 355 550 157 c 0
 550 23 450 -22 313 -22 c 0
 252 -22 206 -6 172 16 c 0
 161 23 155 27 151 27 c 0
 146 27 143 23 135 11 c 0
 123 -6 121 -10 90 -10 c 2
 50 -10 l 2
 21 -10 20 -8 20 16 c 2
 20 181 l 2
 20 201 22 203 48 203 c 2
 94 203 l 2
 129 203 125 197 135 173 c 0
 162 109 219 75 273 75 c 0
 313 75 347 82 347 118 c 0
 347 215 37 179 37 375 c 0
 37 489 137 542 252 542 c 0
 310 542 349 530 376 513 c 0
 391 504 397 491 404 491 c 0
 408 491 411 494 416 503 c 2
 424 517 l 2
 432 530 443 530 464 530 c 6
 496 530 l 2
 504 530 511 531 516 531 c 0
 526 531 532 528 532 511 c 2
 532 359 l 2
 532 330 531 330 504 330 c 0
 483.333333333 330 462.666666667 330 442 330 c 0
 420 330 425 345 420 360 c 0
EndSplineSet
EndChar

StartChar: t
Encoding: 116 116 57
Width: 498
VWidth: 1155
Flags: HMW
LayerCount: 2
Fore
SplineSet
456 77 m 4
 424 27 375 -17 263 -17 c 0
 146 -17 93 27 93 136 c 2
 93 389 l 2
 93 414 92 415 64 415 c 2
 30 415 l 2
 0 415 0 416 0 446 c 2
 0 488 l 2
 0 523 3 519 36 521 c 0
 106 524 178 543 210 662 c 0
 217 686 210 700 244 700 c 2
 278 700 l 2
 301 700 303 696 303 682 c 0
 303 637.333333333 303 592.666666667 303 548 c 0
 303 520 304 520 330 520 c 2
 406 520 l 2
 431 520 430 519 430 494 c 2
 430 436 l 2
 430 419 428 415 402 415 c 2
 330 415 l 2
 306 415 303 412 303 378 c 2
 303 154 l 2
 303 119 315 102 339 102 c 0
 352 102 365 107 378 121 c 0
 387 130 392 147 403 147 c 0
 406 147 409 146 412 144 c 2
 452 119 l 2
 464 112 469 108 469 102 c 0
 469 96 464 89 456 77 c 4
EndSplineSet
EndChar

StartChar: u
Encoding: 117 117 58
Width: 775
VWidth: 1155
Flags: HMW
LayerCount: 2
Back
SplineSet
625 0 m 5
 465 0 l 5
 465 110 l 5
 625 110 l 5
 625 0 l 5
110 435 m 5
 20 435 l 5
 20 520 l 5
 110 520 l 5
 110 435 l 5
280 167 m 5
 110 151 l 5
 110 520 l 5
 280 520 l 5
 280 167 l 5
455 435 m 5
 385 435 l 5
 385 520 l 5
 455 520 l 5
 455 435 l 5
625 0 m 5
 455 110 l 5
 455 520 l 5
 625 520 l 5
 625 0 l 5
715 0 m 5
 625 0 l 5
 625 85 l 5
 715 85 l 5
 715 0 l 5
280 167 m 5
 280 103 294 77 345 77 c 4
 413 77 455 134 455 237 c 5
 494 237 l 5
 494 135 455 -20 272 -20 c 4
 155 -20 110 44 110 151 c 5
 280 167 l 5
EndSplineSet
Fore
SplineSet
455 237 m 2
 455 376 l 2
 455 384 456 392 456 397 c 0
 456 410 452 415 430 415 c 2
 412 415 l 2
 387 415 385 419 385 435 c 0
 385 452.666666667 385 470.333333333 385 488 c 0
 385 518 388 520 409 520 c 2
 640 520 l 2
 664 520 665 519 665 490 c 2
 665 128 l 2
 665 109 668 105 696 105 c 2
 722 105 l 2
 729 105 735 106 740 106 c 0
 750 106 755 103 755 86 c 2
 755 24 l 2
 755 2 752 0 738 -0 c 2
 494 -0 l 2
 477 0 475 1 475 24 c 2
 475 32 l 2
 475 59 472 69 467 69 c 0
 464 69 460 64 455 57 c 4
 426 11 376 -20 292 -20 c 0
 175 -20 110 44 110 151 c 2
 110 388 l 2
 110 413 107 415 90 415 c 0
 74.6666666667 415 59.3333333333 415 44 415 c 0
 23 415 19 421 19 434 c 0
 19 440 20 448 20 458 c 2
 20 488 l 2
 20 517 25 520 43 520 c 2
 297 520 l 2
 317 520 320 517 320 488 c 2
 320 167 l 2
 320 113 334 97 365 97 c 0
 403 97 455 134 455 237 c 2
EndSplineSet
EndChar

StartChar: v
Encoding: 118 118 59
Width: 679
VWidth: 1155
Flags: HMW
LayerCount: 2
Fore
SplineSet
412 224 m 0
 422 250 431 277 442 302 c 2
 483 390 l 2
 486 397 488 402 488 406 c 0
 488 413 482 415 467 415 c 6
 447 415 l 2
 432 415 429 422 429 432 c 0
 429 438 430 446 430 454 c 2
 430 490 l 2
 430 519 432 520 456 520 c 0
 525 520 594 520 663 520 c 0
 683 520 684 518 684 503 c 0
 684 484.666666667 684 466.333333333 684 448 c 0
 684 441 685 434 685 429 c 0
 685 420 682 415 669 415 c 2
 647 415 l 2
 614 415 615 409 605 388 c 2
 426 28 l 2
 414 4 416 -15 377 -15 c 2
 337 -15 l 2
 296 -15 296 -10 282 16 c 2
 84 388 l 2
 72 411 71 415 33 415 c 2
 13 415 l 2
 -3 415 -6 422 -6 432 c 0
 -6 438 -5 445 -5 454 c 2
 -5 500 l 2
 -5 518 -1 521 10 521 c 0
 15 521 21 520 29 520 c 2
 351 520 l 2
 385 520 386 518 386 489 c 0
 386 474 386 459 386 444 c 0
 386 415 386 415 357 415 c 2
 341 415 l 2
 318 415 311 413 311 407 c 0
 311 402 318 393 324 380 c 2
 357 314 l 2
 369 289 380 264 390 236 c 0
 394 223 400 217 405 217 c 0
 408 217 411 220 412 224 c 0
EndSplineSet
EndChar

StartChar: w
Encoding: 119 119 60
Width: 945
VWidth: 1155
Flags: HMW
LayerCount: 2
Fore
SplineSet
360 272 m 1
 370 304 380 334 392 364 c 2
 442 493 l 2
 449 511 447 520 474 520 c 2
 544 520 l 2
 572 520 575 520 584 501 c 2
 638 381 l 2
 649 356 660 332 670 305 c 0
 682 271 688 250 693 250 c 0
 698 250 702 266 711 301 c 0
 718 330 727 357 736 385 c 0
 739 396 743 403 743 407 c 0
 743 414 736 415 714 415 c 2
 692 415 l 2
 669 415 665 420 665 434 c 0
 665 440 666 446 666 455 c 2
 666 491 l 2
 666 519 668 520 691 520 c 0
 768 520 845 520 922 520 c 0
 949 520 950 518 950 497 c 2
 950 432 l 2
 950 419 947 415 926 415 c 2
 902 415 l 2
 867 415 866 413 858 387 c 0
 818 264 779 141 739 18 c 0
 730 -10 731 -15 692 -15 c 2
 632 -15 l 2
 591 -15 593 -3 581 24 c 2
 528 138 l 2
 513 171 498 204 487 240 c 0
 481 260 477 270 472 270 c 0
 468 270 463 261 457 240 c 0
 444 196 439 178 421 132 c 0
 409 102 394 65 382 34 c 0
 368 -2 374 -15 328 -15 c 2
 266 -15 l 2
 229 -15 230 -8 221 18 c 2
 90 387 l 2
 82 410 83 415 50 415 c 2
 17 415 l 2
 -4 415 -5 416 -5 443 c 2
 -5 485 l 2
 -5 519 -4 520 27 520 c 2
 344 520 l 2
 364 520 366 519 366 493 c 2
 366 434 l 2
 366 418 364 415 340 415 c 2
 314 415 l 2
 297 415 291 413 291 407 c 0
 291 402 296 394 300 383 c 2
 309 354 l 2
 318 327 326 299 333 270 c 1
 337 246 341 235 345 235 c 0
 350 235 355 248 360 272 c 1
EndSplineSet
EndChar

StartChar: x
Encoding: 120 120 61
Width: 724
VWidth: 1155
Flags: HMW
LayerCount: 2
Fore
SplineSet
428 377 m 6
 456 398 l 2
 463 403 475 409 475 412 c 0
 475 414 471 415 460 415 c 0
 449 415 447 420 447 428 c 0
 447 433 448 440 448 446 c 2
 448 498 l 2
 448 518 452 520 464 520 c 2
 687 520 l 2
 711 520 712 519 712 492 c 2
 712 428 l 2
 712 418 710 415 694 415 c 2
 672 415 l 2
 636 415 629 408 610 393 c 2
 504 313 l 2
 488 301 479 296 479 289 c 0
 479 284 483 278 493 268 c 2
 627 130 l 2
 645 111 649 105 688 105 c 2
 708 105 l 2
 727 105 729 100 729 89 c 0
 729 71.3333333333 729 53.6666666667 729 36 c 0
 729 28 730 21 730 16 c 0
 730 6 727 0 710 0 c 2
 390 0 l 2
 380 0 372 -1 366 -1 c 0
 349 -1 343 3 343 32 c 2
 343 78 l 2
 343 105 343 105 370 105 c 2
 386 105 l 2
 398 105 402 106 402 109 c 0
 402 113 391 121 384 128 c 2
 352 160 l 2
 342 171 337 176 331 176 c 0
 326 176 320 172 310 164 c 2
 258 125 l 2
 248 118 237 112 237 109 c 0
 237 107 243 105 260 105 c 2
 268 105 l 2
 283 105 284 104 284 84 c 2
 284 18 l 2
 284 2 282 0 260 0 c 2
 21 -0 l 2
 -3 0 -5 2 -5 34 c 2
 -5 85 l 2
 -5 104 -4 105 18 105 c 2
 38 105 l 2
 77 105 83 114 104 130 c 2
 246 238 l 2
 255 245 259 250 259 254 c 0
 259 261 249 268 237 280 c 2
 122 398 l 2
 109 412 105 415 76 415 c 2
 48 415 l 2
 20 415 18 417 18 438 c 0
 18 458.666666667 18 479.333333333 18 500 c 0
 18 518 21 520 32 520 c 2
 388 520 l 2
 407 520 409 519 409 494 c 2
 409 442 l 2
 409 417 407 415 388 415 c 2
 369 415 l 2
 360 415 356 415 356 413 c 0
 356 411 359 408 365 402 c 2
 388 378 l 2
 397 369 401 365 406 365 c 0
 411 365 417 369 428 377 c 6
EndSplineSet
EndChar

StartChar: y
Encoding: 121 121 62
Width: 715
VWidth: 1155
Flags: HMW
LayerCount: 2
Back
SplineSet
426 415 m 5
 35 415 l 5
 35 520 l 5
 426 520 l 5
 426 415 l 5
714 415 m 5
 470 415 l 5
 470 520 l 5
 714 520 l 5
 714 415 l 5
493 120 m 5
 338 -15 l 5
 70 490 l 5
 310 490 l 5
 493 120 l 5
445 -15 m 5
 338 -15 l 5
 568 490 l 5
 695 490 l 5
 445 -15 l 5
236 -97 m 0
 236 -165 178 -160 178 -176 c 1
 75 -128 l 1
 75 -72 100 -23 161 -23 c 0
 211 -23 236 -56 236 -97 c 0
473 58 m 1
 392 -67 l 1
 126 520 l 1
 266 520 l 1
 473 58 l 1
710 435 m 1
 495 435 l 1
 495 520 l 1
 710 520 l 1
 710 435 l 1
363 435 m 1
 72 435 l 1
 72 520 l 1
 363 520 l 1
 363 435 l 1
223 -205 m 1
 262 -205 317.92578125 -180.27734375 365 -60 c 2
 592 520 l 1
 666 520 l 1
 419 -102 l 2
 367.118164062 -232.649414062 281 -265 223 -265 c 1
 223 -205 l 1
75 -128 m 1
 178 -176 l 1
 178 -189 190 -205 223 -205 c 1
 223 -265 l 1
 126 -265 75 -195 75 -128 c 1
EndSplineSet
Fore
SplineSet
193 -265 m 0
 66 -265 15 -185 15 -98 c 0
 15 -2 80 67 151 67 c 0
 211 67 256 29 256 -32 c 0
 256 -140 158 -111 158 -142 c 0
 158 -155 169 -165 193 -165 c 0
 247 -165 281 -128 322 -38 c 0
 327 -27 330 -20 330 -13 c 0
 330 -5 327 2 321 14 c 2
 135 384 l 2
 122 409 122 415 83 415 c 2
 68 415 l 2
 44 415 42 419 42 434 c 0
 42 454 42 474 42 494 c 0
 42 519 44 520 63 520 c 2
 399 520 l 2
 415 520 418 518 418 495 c 2
 418 430 l 2
 418 417 415 415 407 415 c 0
 391.333333333 415 375.666666667 415 360 415 c 0
 344 415 339 413 339 409 c 0
 339 405 344 400 348 391 c 2
 394 295 l 2
 405 273 414 251 422 226 c 0
 428 208 431 199 434 199 c 0
 437 199 439 208 445 226 c 0
 453 250 462 272 471 293 c 2
 511 383 l 2
 516 394 522 402 522 407 c 0
 522 412 516 415 499 415 c 2
 479 415 l 2
 462 415 459 420 459 430 c 0
 459 435 460 441 460 448 c 2
 460 493 l 2
 460 519 461 520 484 520 c 0
 549.666666667 520 615.333333333 520 681 520 c 0
 690 520 697 521 703 521 c 0
 714 521 720 518 720 501 c 2
 720 445 l 2
 720 438 721 433 721 428 c 0
 721 419 718 415 704 415 c 2
 677 415 l 2
 654 415 655 410 648 395 c 6
 439 -52 l 2
 385 -167 330 -263 193 -265 c 0
EndSplineSet
EndChar

StartChar: z
Encoding: 122 122 63
Width: 600
VWidth: 1155
Flags: HMW
LayerCount: 2
Fore
SplineSet
291 420 m 2
 188 420 161 378 155 312 c 0
 155 309 154 305 154 302 c 0
 154 298 155 294 155 290 c 0
 155 277 152 268 132 268 c 2
 76 268 l 2
 56 268 52 275 52 288 c 0
 52 295 53 304 53 314 c 2
 53 484 l 2
 53 518 55 520 81 520 c 2
 545 520 l 2
 561 520 564 518 564 494 c 2
 564 450 l 2
 564 420 560 415 546 400 c 2
 304 138 l 2
 292 126 273 114 273 107 c 0
 273 103 281 100 304 100 c 4
 436 100 460 148 464 240 c 0
 465 268 461 274 492 274 c 2
 534 274 l 2
 565 274 565 273 565 242 c 2
 565 30 l 2
 565 1 563 0 539 -0 c 0
 378 -0 217 0 56 0 c 0
 32 0 30 10 30 30 c 0
 30 43.3333333333 30 56.6666666667 30 70 c 0
 30 110 44 115 62 134 c 2
 302 386 l 2
 314 399 337 410 337 416 c 0
 337 418 333 420 322 420 c 2
 291 420 l 2
EndSplineSet
EndChar

StartChar: comma
Encoding: 44 44 65
Width: 365
Flags: HMW
LayerCount: 2
Fore
SplineSet
40 104 m 0
 40 167 89 223 167 223 c 0
 231 223 307 192 307 79 c 0
 307 -60 187 -144 74 -155 c 0
 68 -156 63 -156 59 -156 c 0
 50 -156 48 -152 48 -135 c 2
 48 -84 l 2
 48 -62 52 -67 72 -65 c 4
 123 -60 184 -37 203 8 c 0
 206 15 207 19 207 22 c 0
 207 24 206 25 205 25 c 0
 202 25 195 18 187 11 c 0
 176 0 156 -5 128 -5 c 0
 75 -5 40 41 40 104 c 0
EndSplineSet
EndChar

StartChar: exclam
Encoding: 33 33 67
Width: 399
Flags: HMW
LayerCount: 2
Fore
SplineSet
328 624 m 0
 309 463 253 441 244 324 c 1
 244 308 l 2
 244 295 243 288 222 288 c 2
 184 288 l 2
 151 288 156 293 154 322 c 4
 145 441 89 462 70 624 c 0
 69 631 70 637 70 643 c 0
 70 729 132 768 199 768 c 0
 266 768 329 729 329 643 c 0
 329 637 329 631 328 624 c 0
EndSplineSet
Refer: 1 46 N 1 0 0 1 40 0 2
EndChar

StartChar: quotesingle
Encoding: 39 39 70
Width: 299
Flags: HMW
LayerCount: 2
Fore
SplineSet
258 654 m 0
 248 596 200 558 189 487 c 0
 185 464 192 458 164 458 c 2
 135 458 l 2
 102 458 111 468 106 494 c 4
 94 560 49 598 40 654 c 0
 39 661 39 666 39 672 c 0
 39 726 85 768 149 768 c 0
 213 768 259 726 259 672 c 0
 259 666 259 661 258 654 c 0
EndSplineSet
EndChar

StartChar: question
Encoding: 63 63 75
Width: 630
Flags: HMW
LayerCount: 2
Fore
SplineSet
238 646 m 0
 238 626 284 621 284 550 c 0
 284 488 232 440 167 440 c 0
 102 440 45 493 45 571 c 0
 45 663 129 770 321 770 c 0
 532 770 610 690 610 570 c 0
 610 475 539 412 447 376 c 0
 420 366 407 371 407 332 c 2
 407 296 l 2
 407 271 405 269 386 269 c 0
 338.666666667 269 291.333333333 269 244 269 c 0
 209 269 207 271 207 299 c 0
 207 315.333333333 207 331.666666667 207 348 c 0
 207 391 211 389 242 400 c 4
 330 431 389 478 389 570 c 0
 389 644 370 678 301 678 c 0
 247 678 238 658 238 646 c 0
EndSplineSet
Refer: 1 46 N 1 0 0 1 159 0 2
EndChar

StartChar: parenleft
Encoding: 40 40 76
Width: 505
Flags: HMW
LayerCount: 2
Fore
SplineSet
493 -114 m 6
 476 -148 l 2
 469 -162 467 -167 458 -167 c 0
 454 -167 449 -166 441 -164 c 0
 229 -107 55 72 55 325 c 0
 55 571 219 729 423 789 c 0
 436 793 446 798 455 798 c 0
 462 798 467 794 472 785 c 2
 486 759 l 2
 494 743 500 735 500 728 c 0
 500 722 494 717 478 710 c 0
 352 655 290 542 290 325 c 0
 290 114 349 -15 467 -74 c 0
 487 -84 499 -84 499 -95 c 0
 499 -99 497 -105 493 -114 c 6
EndSplineSet
EndChar

StartChar: asterisk
Encoding: 42 42 78
Width: 635
VWidth: 1155
Flags: HMW
LayerCount: 2
Fore
SplineSet
367 515 m 0
 367 526.57583026 431.630423235 533 444 533 c 0
 470 533 492 528 513 528 c 0
 529 528 545 531 561 540 c 0
 588 556 600 579 600 605 c 0
 600 624 593 645 581 667 c 0
 560 703 532 725 501 725 c 0
 488 725 475 722 461 714 c 0
 412 686 419 634 369 580 c 0
 358 568 350 560 345 560 c 0
 343 560 341 562 341 566 c 0
 341 571 343 581 348 595 c 0
 370 664 417 683 417 739 c 0
 417 793 376 820 317 820 c 0
 258 820 217 793 217 739 c 0
 217 682 265 663 287 591 c 0
 291 578 293 570 293 565 c 0
 293 561 292 559 290 559 c 0
 286 559 278 566 267 577 c 0
 214 632 223 685 173 714 c 0
 159 722 146 725 133 725 c 0
 102 725 74 703 53 667 c 0
 41 645 34 624 34 605 c 0
 34 579 46 556 73 540 c 0
 89 530 105 528 121 528 c 0
 142 528 164 533 190 533 c 0
 207 533 225 531 246 525 c 0
 260 521 268 518 268 515 c 0
 268 512 262 510 249 506 c 0
 227 499 207 497 190 497 c 0
 164 497 142 502 121 502 c 0
 105 502 89 498 73 489 c 0
 46 473 34 451 34 425 c 0
 34 406 41 384 53 362 c 0
 74 326 102 305 133 305 c 0
 146 305 159 308 173 316 c 0
 225 346 213 403 276 461 c 0
 283 468 289 474 292 474 c 0
 293 474 294 472 294 469 c 0
 294 466 293 462 292 455 c 4
 273 369 217 352 217 291 c 0
 217 237 258 210 317 210 c 0
 376 210 417 237 417 291 c 0
 417 350 364 368 344 447 c 0
 342 456 341 463 341 467 c 0
 341 471 342 472 344 472 c 0
 348 472 356 464 365 455 c 0
 421 399 411 345 461 316 c 0
 475 308 488 305 501 305 c 0
 532 305 560 326 581 362 c 0
 593 384 600 406 600 425 c 0
 600 451 588 473 561 489 c 0
 545 499 529 502 513 502 c 0
 492 502 470 497 444 497 c 0
 431.513929724 497 367 503.386841565 367 515 c 0
EndSplineSet
EndChar

StartChar: at
Encoding: 64 64 79
Width: 1150
VWidth: 1155
Flags: HMW
LayerCount: 2
Back
SplineSet
865 -74 m 5
 781 -172 652 -224 489 -224 c 4
 306 -224 45 -112 45 221 c 5
 230 231 l 5
 230 -71 411 -129 525 -129 c 4
 619 -129 716 -113 806 -15 c 5
 865 -74 l 5
862 520 m 5
 790 210 l 5
 620 210 l 5
 692 520 l 5
 862 520 l 5
673 359 m 4
 673 192.828125 604 65 484 65 c 4
 375 65 324 125.583984375 324 210 c 4
 324 380 409 534 568 534 c 4
 679 534 673 461 673 359 c 4
644 346 m 4
 644 387.927734375 640 458 594 458 c 4
 550 458 495 324 495 220 c 4
 495 173.072265625 500 142 534 142 c 4
 595 142 644 268 644 346 c 4
620 210 m 5
 790 210 l 5
 788 197 775 160 808 160 c 4
 859 160 957 241 957 405 c 5
 1050 401 l 5
 1050 231 942 65 761 65 c 4
 662 65 607 148 620 210 c 5
957 405 m 5
 957 612 806 712 622 712 c 4
 408 712 230 503 230 231 c 5
 45 221 l 5
 45 554 292 800 605 800 c 4
 898 800 1050 624 1050 401 c 5
 957 405 l 5
EndSplineSet
Fore
SplineSet
674 346 m 0
 674 388 672 418 644 418 c 0
 600 418 565 304 565 240 c 0
 565 193 570 182 584 182 c 0
 625 182 674 268 674 346 c 0
874 -97 m 4
 790 -180 669 -224 519 -224 c 0
 336 -224 45 -112 45 221 c 0
 45 554 322 800 635 800 c 0
 928 800 1090 624 1090 401 c 0
 1090 231 972 63 791 63 c 0
 741 63 702 85 678 114 c 0
 665 130 659 137 655 137 c 0
 650 137 646 127 628 111 c 0
 596 82 555 65 504 65 c 0
 425 65 354 106 354 210 c 0
 354 320 439 534 598 534 c 0
 646 534 675 520 691 496 c 0
 703 478 706 465 708 465 c 0
 710 465 711 475 717 500 c 0
 721 518 727 520 742 520 c 0
 777.333333333 520 812.666666667 520 848 520 c 0
 879 520 888 519 888 508 c 0
 888 502 885 493 882 480 c 2
 820 220 l 2
 819 214 816 203 816 193 c 0
 816 181 820 170 838 170 c 0
 889 170 977 241 977 405 c 0
 977 612 806 682 672 682 c 0
 478 682 270 523 270 241 c 0
 270 29 381 -109 555 -109 c 0
 636 -109 713 -105 790 -40 c 0
 808 -25 816 -13 825 -13 c 0
 832 -13 840 -19 854 -33 c 2
 876 -55 l 2
 886 -65 890 -70 890 -75 c 0
 890 -81 885 -87 874 -97 c 4
EndSplineSet
EndChar

StartChar: dollar
Encoding: 36 36 80
Width: 725
Flags: HMW
LayerCount: 2
Back
SplineSet
197 103 m 21
 135 -5 l 13
 135 165 l 5
 197 103 l 21
135 295 m 5
 135 -5 l 5
 20 -5 l 5
 20 295 l 5
 135 295 l 5
125 200 m 5
 135 295 l 5
 135 196 216 111 340 111 c 4
 426 111 470 136 470 185 c 5
 695 230 l 5
 695 40 561 -20 380 -20 c 4
 174 -20 125 120 125 200 c 5
35 529 m 5
 256 578 l 5
 256 458 695 520 695 230 c 5
 470 185 l 5
 470 325 35 239 35 529 c 5
493 652 m 21
 555 750 l 13
 555 590 l 5
 493 652 l 21
555 475 m 5
 555 750 l 5
 670 750 l 5
 670 475 l 5
 555 475 l 5
575 564 m 5
 555 475 l 5
 555 594 444 634 360 634 c 4
 294 634 256 612 256 578 c 5
 35 529 l 5
 35 699 179 765 310 765 c 4
 476 765 575 654 575 564 c 5
EndSplineSet
Fore
SplineSet
371 835 m 2
 443 835 l 2
 460 835 464 835 464 825 c 0
 464 822 463 818 463 813 c 2
 461 783 l 1
 461 773 l 2
 461 760 465 761 483 758 c 0
 602 739 714 680 714 569 c 0
 714 491 669 453 600 453 c 0
 553 453 493 474 493 551 c 0
 493 597 528 603 528 620 c 0
 528 628 506 641 474 650 c 0
 467 652 462 654 458 654 c 0
 453 654 451 650 450 636 c 2
 441 514 l 2
 441 508 440 504 440 500 c 0
 440 482 446 482 468 475 c 0
 586 440 715 387 715 230 c 0
 715 101 584 2 422 -13 c 0
 405 -15 400 -11 399 -29 c 2
 397 -64 l 2
 395 -85 395 -85 372 -85 c 2
 297 -85 l 2
 283 -85 281 -84 281 -77 c 2
 281 -67 l 5
 284 -30 l 1
 284 -23 l 2
 284 -7 278 -10 259 -8 c 0
 116 11 6 68 6 186 c 0
 6 274 71 312 120 312 c 0
 187 312 237 281 237 214 c 0
 237 168 200 153 200 130 c 0
 200 111 215 99 263 92 c 0
 271 91 276 90 281 90 c 0
 290 90 294 94 295 112 c 2
 307 265 l 1
 307 275 l 2
 307 293 301 292 281 298 c 0
 169 330 55 380 55 529 c 0
 55 667 176 743 319 761 c 0
 341 764 344 761 346 784 c 2
 349 816 l 2
 350 835 350 835 371 835 c 2
315 642 m 0
 291 626 276 603 276 576 c 0
 276 558 286 544 304 532 c 0
 312 527 317 523 320 523 c 0
 325 523 327 531 328 550 c 2
 334 628 l 2
 334 633 335 636 335 639 c 0
 335 646 334 650 331 650 c 0
 328 650 323 647 315 642 c 0
432 95 m 0
 476 113 490 154 490 184 c 0
 490 212 472 231 444 246 c 0
 436 250 431 253 427 253 c 0
 422 253 420 247 419 230 c 2
 410 112 l 1
 410 102 l 2
 410 93 412 90 416 90 c 0
 420 90 424 92 432 95 c 0
EndSplineSet
EndChar

StartChar: numbersign
Encoding: 35 35 81
Width: 660
Flags: HMW
LayerCount: 2
Fore
SplineSet
237 805 m 2
 280 805 l 2
 307 805 313 805 313 792 c 0
 313 787 312 781 311 773 c 2
 290 592 l 2
 289 580 287 571 287 565 c 0
 287 553 294 550 322 550 c 2
 373 550 l 2
 406 550 402 559 405 587 c 2
 427 777 l 2
 430 802 428 805 456 805 c 2
 510 805 l 2
 529 805 534 804 534 795 c 0
 534 791 533 784 532 776 c 2
 511 597 l 2
 509 583 507 574 507 567 c 0
 507 554 514 550 545 550 c 2
 648 550 l 2
 668 550 670 549 670 523 c 2
 670 476 l 2
 670 445 669 445 640 445 c 2
 519 445 l 2
 496 445 493 444 490 417 c 2
 482 345 l 2
 481 339 480 334 480 330 c 0
 480 320 485 320 506 320 c 2
 616 320 l 2
 639 320 640 319 640 301 c 2
 640 230 l 2
 640 217 639 215 621 215 c 2
 495 215 l 2
 465 215 466 213 463 186 c 2
 439 -23 l 2
 436 -51 438 -55 406 -55 c 2
 355 -55 l 2
 336 -55 331 -52 331 -44 c 0
 331 -39 333 -32 334 -23 c 2
 359 194 l 2
 359 198 360 201 360 204 c 0
 360 214 356 215 345 215 c 0
 319.666666667 215 294.333333333 215 269 215 c 0
 242 215 246 210 243 187 c 2
 219 -22 l 2
 216 -48 220 -55 189 -55 c 2
 131 -55 l 2
 115 -55 111 -54 111 -47 c 0
 111 -44 112 -38 113 -32 c 6
 138 182 l 2
 139 191 140 197 140 202 c 0
 140 213 134 215 109 215 c 2
 12 215 l 2
 -8 215 -10 217 -10 231 c 0
 -10 252 -10 273 -10 294 c 0
 -10 319 -9 320 13 320 c 0
 50.3333333333 320 87.6666666667 320 125 320 c 0
 155 320 154 322 157 348 c 2
 165 414 l 2
 166 421 166 426 166 430 c 0
 166 444 161 445 143 445 c 2
 44 445 l 2
 20 445 20 445 20 471 c 2
 20 529 l 2
 20 548 23 550 35 550 c 2
 153 550 l 2
 178 550 181 552 184 580 c 2
 207 777 l 2
 210 802 208 805 237 805 c 2
356 445 m 2
 304 445 l 2
 272 445 273 443 270 415 c 2
 262 348 l 2
 261 340 260 334 260 330 c 0
 260 321 264 320 284 320 c 2
 345 320 l 2
 374 320 374 321 377 347 c 2
 385 414 l 2
 386 422 386 429 386 433 c 0
 386 445 381 445 356 445 c 2
EndSplineSet
EndChar

StartChar: slash
Encoding: 47 47 82
Width: 520
Flags: HMW
LayerCount: 2
Fore
SplineSet
386 780 m 2
 450 780 l 2
 466 780 475 779 475 769 c 0
 475 766 474 761 472 756 c 2
 177 -125 l 2
 169 -148 169 -150 137 -150 c 2
 79 -150 l 2
 52 -150 44 -149 44 -141 c 0
 44 -136 48 -128 52 -115 c 2
 349 758 l 2
 356 779 357 780 386 780 c 2
EndSplineSet
EndChar

StartChar: percent
Encoding: 37 37 83
Width: 1060
Flags: HMW
LayerCount: 2
Fore
SplineSet
790 210 m 0
 790 108 796 70 825 70 c 0
 854 70 860 108 860 210 c 0
 860 312 854 350 825 350 c 0
 796 350 790 312 790 210 c 0
590 210 m 0
 590 353 682 440 825 440 c 0
 968 440 1060 353 1060 210 c 0
 1060 67 948 -20 825 -20 c 0
 682 -20 590 67 590 210 c 0
740 750 m 2
 818 750 l 2
 842 750 850 747 850 742 c 0
 850 736 840 727 831 714 c 2
 382 42 l 2
 361 11 361 0 306 0 c 2
 250 0 l 2
 226 0 217 4 217 12 c 0
 217 18 223 28 231 40 c 6
 695 726 l 2
 707 744 708 750 740 750 c 2
200 540 m 0
 200 438 206 400 235 400 c 0
 264 400 270 438 270 540 c 0
 270 642 264 680 235 680 c 0
 206 680 200 642 200 540 c 0
0 540 m 0
 0 683 92 770 235 770 c 0
 378 770 470 683 470 540 c 0
 470 397 358 310 235 310 c 0
 92 310 0 397 0 540 c 0
EndSplineSet
EndChar

StartChar: hyphen
Encoding: 45 45 85
Width: 460
Flags: HMW
LayerCount: 2
Fore
SplineSet
92 445 m 2
 370 445 l 6
 399 445 400 443 400 419 c 0
 400 399.333333333 400 379.666666667 400 360 c 4
 400 338 397 330 366 330 c 2
 84 330 l 2
 63 330 59 337 59 350 c 0
 59 357 60 366 60 376 c 2
 60 416 l 6
 60 441 62 445 92 445 c 2
EndSplineSet
EndChar

StartChar: plus
Encoding: 43 43 87
Width: 530
Flags: HMW
LayerCount: 2
Fore
SplineSet
338 358 m 2
 454 358 l 2
 469 358 470 359 470 344 c 2
 470 291 l 2
 470 275 468 273 446 273 c 2
 330 273 l 2
 309 273 307 270 307 256 c 0
 307 217 307 178 307 139 c 0
 307 133 308 127 308 123 c 0
 308 114 305 110 290 110 c 2
 247 110 l 2
 223 110 223 110 223 136 c 2
 223 252 l 2
 223 271 221 273 208 273 c 0
 166 273 124 273 82 273 c 0
 61 273 60 274 60 290 c 0
 60 306 60 322 60 338 c 0
 60 357 62 358 75 358 c 2
 204 358 l 2
 221 358 224 363 224 373 c 0
 224 378 223 384 223 392 c 2
 223 504 l 2
 223 517 225 520 245 520 c 2
 270 520 l 2
 278 520 286 521 291 521 c 0
 302 521 307 518 307 499 c 6
 307 381 l 2
 307 361 309 358 338 358 c 2
EndSplineSet
EndChar

StartChar: less
Encoding: 60 60 89
Width: 560
Flags: HMW
LayerCount: 2
Fore
SplineSet
194 368 m 2
 460 265 l 2
 495 251 500 252 500 202 c 2
 500 164 l 2
 500 138 499 129 492 129 c 0
 487 129 479 133 466 138 c 2
 102 279 l 2
 65 293 58 322 58 361 c 0
 58 382 60 406 60 432 c 0
 60 482 65 481 100 495 c 2
 458 634 l 2
 473 640 483 646 490 646 c 0
 497 646 500 638 500 612 c 2
 500 558 l 2
 500 515 483 518 454 507 c 2
 198 408 l 2
 170 397 156 393 156 388 c 0
 156 383 168 378 194 368 c 2
EndSplineSet
EndChar

StartChar: backslash
Encoding: 92 92 91
Width: 520
Flags: HMW
LayerCount: 2
Fore
SplineSet
174 752 m 2
 468 -114 l 2
 472 -127 475 -135 475 -140 c 0
 475 -149 466 -150 436 -150 c 2
 392 -150 l 2
 348 -150 349 -144 338 -112 c 6
 51 746 l 2
 47 758 43 766 43 771 c 0
 43 778 51 780 74 780 c 2
 132 780 l 2
 166 780 166 776 174 752 c 2
EndSplineSet
EndChar

StartChar: bracketleft
Encoding: 91 91 92
Width: 405
Flags: HMW
LayerCount: 2
Fore
SplineSet
375 760 m 2
 375 705 l 2
 375 665 375 665 335 665 c 2
 290 665 l 2
 268 665 263 656 263 641 c 0
 263 632 265 621 265 609 c 2
 265 18 l 2
 265 6 264 -3 264 -11 c 0
 264 -27 268 -35 296 -35 c 2
 332 -35 l 2
 341 -35 349 -34 355 -34 c 0
 370 -34 375 -38 375 -63 c 2
 375 -102 l 2
 375 -112 376 -120 376 -127 c 0
 376 -144 372 -150 344 -150 c 2
 92 -150 l 2
 58 -150 55 -146 55 -122 c 0
 55 166.666666667 55 455.333333333 55 744 c 0
 55 777 61 780 81 780 c 0
 169.666666667 780 258.333333333 780 347 780 c 0
 372 780 375 775 375 760 c 2
EndSplineSet
EndChar

StartChar: braceleft
Encoding: 123 123 93
Width: 372
VWidth: 1155
Flags: HMW
LayerCount: 2
Fore
SplineSet
324 -150 m 5
 140 -148 35 -116 35 -10 c 0
 35 87 115 142 115 205 c 0
 115 235 99 245 79 252 c 0
 56 260 55 261 55 292 c 2
 55 347 l 2
 55 379 69 372 89 382 c 0
 104 390 115 401 115 426 c 0
 115 489 35 544 35 641 c 0
 35 743 134 776 307 780 c 1
 326 780 l 2
 338 780 342 777 342 757 c 2
 342 701 l 2
 342 672 341 674 314 673 c 0
 268 671 238 662 238 617 c 0
 238 551 282 521 282 431 c 0
 282 393 249 357 207 336 c 0
 188 326 177 321 177 316 c 0
 177 311 185 306 203 297 c 0
 247 274 282 239 282 200 c 0
 282 110 238 80 238 14 c 0
 238 -32 270 -41 319 -43 c 0
 339 -44 342 -41 342 -62 c 2
 342 -136 l 2
 342 -147 341 -150 326 -150 c 2
 324 -150 l 5
EndSplineSet
EndChar

StartChar: bar
Encoding: 124 124 96
Width: 300
VWidth: 1155
Flags: HMW
LayerCount: 2
Fore
SplineSet
102 780 m 2
 192 780 l 2
 222 780 225 777 225 756 c 2
 225 -227 l 2
 225 -245 222 -250 192 -250 c 2
 106 -250 l 2
 77 -250 75 -248 75 -226 c 0
 75 97.3333333333 75 420.666666667 75 744 c 0
 75 770 76 780 102 780 c 2
EndSplineSet
EndChar

StartChar: cent
Encoding: 162 162 98
Width: 625
VWidth: 1155
Flags: HMW
LayerCount: 2
Fore
SplineSet
397 615 m 6
 431 615 l 2
 445 615 449 615 449 610 c 0
 449 607 448 603 446 597 c 2
 436 557 l 2
 434 548 432 542 432 538 c 0
 432 529 439 528 457 522 c 0
 544 493 594 434 594 372 c 0
 594 294 540 250 471 250 c 0
 438 250 411 258 392 271 c 0
 380 279 375 290 371 290 c 0
 368 290 366 285 363 272 c 2
 322 114 l 2
 320 105 317 98 317 93 c 0
 317 87 321 83 335 83 c 0
 380 83 407 104 430 147 c 0
 441 167 439 173 472 173 c 2
 534 173 l 2
 564 173 575 171 575 160 c 0
 575 154 572 146 568 134 c 0
 530 25 431 -20 313 -20 c 0
 287 -20 287 -20 282 -41 c 2
 276 -66 l 2
 272 -83 272 -85 250 -85 c 2
 213 -85 l 2
 201 -85 197 -83 197 -79 c 0
 197 -75 200 -70 202 -63 c 2
 210 -30 l 2
 212 -22 214 -17 214 -14 c 0
 214 -9 210 -7 200 -4 c 0
 75 35 15 139 15 250 c 0
 15 400 123 540 334 540 c 0
 357 540 357 540 362 559 c 2
 371 596 l 2
 375 613 375 615 397 615 c 6
250 270 m 0
 250 254.763444333 249.591180586 181 260 181 c 0
 263 181 266 188 271 206 c 2
 327 424 l 2
 329 431 330 437 330 440 c 0
 330 443 329 445 327 445 c 0
 324 445 319 442 312 438 c 0
 273 415 250 357 250 270 c 0
EndSplineSet
EndChar

StartChar: sterling
Encoding: 163 163 99
Width: 650
VWidth: 1155
Flags: HMW
LayerCount: 2
Fore
SplineSet
473 371 m 2
 473 302 l 2
 473 281 472 280 445 280 c 2
 357 280 l 2
 319 280 327 266 314 244 c 0
 307 231 298 220 287 210 c 0
 281 205 273 199 273 197 c 0
 273 196 273 196 275 196 c 0
 278 196 286 197 298 201 c 0
 312 205 324 207 335 207 c 0
 395 207 405 163 451 163 c 0
 478 163 506 178 515 213 c 0
 520 233 515 237 541 237 c 2
 575 237 l 2
 600 237 605 233 605 219 c 0
 605 213 604 206 603 197 c 0
 593 69 532 -40 415 -40 c 0
 298 -40 263 25 190 25 c 0
 159 25 129 17 112 0 c 0
 102 -9 105 -20 86 -20 c 2
 40 -20 l 6
 25 -20 20 -17 19 -4 c 0
 19 -1 18 2 18 5 c 0
 18 129 147 201 147 261 c 0
 147 278 143 280 131 280 c 0
 81.3333333333 280 31.6666666667 280 -18 280 c 0
 -35 280 -37 283 -37 294 c 0
 -37 320 -37 346 -37 372 c 0
 -37 393 -34 395 -20 395 c 0
 10 395 40 395 70 395 c 0
 85 395 90 397 90 400 c 0
 90 404 82 412 76 421 c 0
 50 460 26 499 26 550 c 0
 26 690 161 775 362 775 c 0
 544 775 628 673 628 581 c 0
 628 503 573 455 514 455 c 0
 457 455 398 496 398 563 c 0
 398 609 435 624 435 647 c 0
 435 674 406 683 362 683 c 0
 283 683 257 634 257 560 c 0
 257 505 280 461 301 419 c 0
 311 399 310 395 341 395 c 2
 455 395 l 2
 471 395 473 393 473 371 c 2
EndSplineSet
EndChar

StartChar: section
Encoding: 167 167 101
Width: 594
VWidth: 1155
Flags: HMW
LayerCount: 2
Fore
SplineSet
377 658 m 0
 377 684 345 694 293 694 c 0
 240 694 225 671 225 634 c 0
 225 518 568 538 568 375 c 0
 568 338 546 303 513 273 c 0
 504 265 499 260 499 257 c 0
 499 252 508 249 521 238 c 4
 550 215 568 184 568 142 c 0
 568 18 388 -20 293 -20 c 0
 185 -20 9 2 9 128 c 0
 9 206 74 239 113 239 c 0
 160 239 210 193 210 146 c 0
 210 110 178 105 178 82 c 0
 178 56 230 56 282 56 c 0
 345 56 370 69 370 116 c 0
 370 232 27 212 27 375 c 0
 27 414 52 440 83 461 c 0
 101 473 109 478 109 483 c 0
 109 489 95 494 75 510 c 0
 46 534 27 565 27 608 c 0
 27 712 187 770 282 770 c 0
 410 770 556 728 556 612 c 0
 556 544 491 516 452 516 c 0
 415 516 355 547 355 594 c 0
 355 630 377 635 377 658 c 0
362 333 m 0
 362 383 313 409 252 431 c 0
 244 434 237 437 232 437 c 0
 226 437 223 432 223 417 c 0
 223 369 270 344 329 322 c 0
 338 319 346 314 352 314 c 0
 358 314 362 318 362 333 c 0
EndSplineSet
EndChar

StartChar: asciitilde
Encoding: 126 126 104
Width: 688
VWidth: 1155
Flags: HMW
LayerCount: 2
Fore
SplineSet
243 417 m 0
 215 417 195 402 189 366 c 0
 186 345 189 343 164 343 c 2
 98 343 l 2
 76 343 70 346 70 358 c 0
 70 363 72 371 73 380 c 0
 86 475 152 540 249 540 c 0
 379 540 359 436 435 436 c 0
 461 436 487 450 497 482 c 0
 503 503 495 510 524 510 c 2
 584 510 l 2
 591 510 598 511 603 511 c 0
 613 511 617 508 617 495 c 2
 617 490 l 5
 609 386 542 313 439 313 c 0
 292 313 326 417 243 417 c 0
EndSplineSet
EndChar

StartChar: copyright
Encoding: 169 169 105
Width: 870
Flags: HMW
LayerCount: 2
Fore
SplineSet
40 375 m 0
 40 588 218 760 435 760 c 0
 652 760 830 588 830 375 c 0
 830 162 652 -10 435 -10 c 0
 218 -10 40 162 40 375 c 0
100 375 m 0
 100 190 250 39 435 39 c 0
 620 39 770 190 770 375 c 0
 770 560 620 711 435 711 c 0
 250 711 100 560 100 375 c 0
EndSplineSet
Refer: 14 67 S 0.6 0 0 0.6 162 150 2
EndChar

StartChar: registered
Encoding: 174 174 106
Width: 870
Flags: HMW
LayerCount: 2
Fore
SplineSet
40 375 m 0
 40 588 218 760 435 760 c 0
 652 760 830 588 830 375 c 0
 830 162 652 -10 435 -10 c 0
 218 -10 40 162 40 375 c 0
100 375 m 0
 100 190 250 39 435 39 c 0
 620 39 770 190 770 375 c 0
 770 560 620 711 435 711 c 0
 250 711 100 560 100 375 c 0
EndSplineSet
Refer: 29 82 N 0.566508 0 0 0.6 179 148 2
EndChar

StartChar: guillemotleft
Encoding: 171 171 108
Width: 695
Flags: HMW
LayerCount: 2
Fore
SplineSet
515 371 m 2
 662 205 l 2
 672 194 677 192 667 179 c 2
 649 154 l 2
 642 144 638 139 633 139 c 0
 629 139 624 143 614 150 c 2
 305 368 l 2
 298 373 295 373 295 385 c 0
 295 402 299 402 308 409 c 2
 619 629 l 2
 632 639 634 642 644 628 c 2
 664 600 l 2
 669 593 672 590 672 586 c 0
 672 582 670 579 664 572 c 2
 522 411 l 2
 512 400 505 394 505 388 c 0
 505 384 508 379 515 371 c 2
240 366 m 2
 383 204 l 2
 389 197 391 193 391 189 c 0
 391 184 387 179 380 170 c 2
 367 151 l 2
 361 142 357 139 353 139 c 0
 349 139 344 143 335 149 c 2
 36 360 l 2
 27 366 15 372 15 385 c 0
 15 405 22 405 33 413 c 2
 338 628 l 2
 346 633 349 637 353 637 c 0
 356 637 359 634 364 627 c 2
 386 597 l 2
 396 584 393 583 383 571 c 6
 245 415 l 2
 233 402 226 395 226 388 c 0
 226 382 231 377 240 366 c 2
EndSplineSet
EndChar

StartChar: mu
Encoding: 181 181 111
Width: 775
VWidth: 1155
Flags: HMW
LayerCount: 2
Fore
SplineSet
281 -93 m 4
 344 -93 367 -127 367 -171 c 4
 367 -216 314 -260 256 -260 c 1
 207 -132 l 1
 227 -132 246 -93 281 -93 c 4
110 -122 m 1
 110 321 l 1
 170 321 l 1
 170 -99 l 1
 110 -122 l 1
110 -122 m 1
 170 -99 l 1
 170 -129 186 -132 199 -132 c 2
 207 -132 l 1
 256 -260 l 1
 194 -260 110 -211 110 -122 c 1
EndSplineSet
Refer: 58 117 N 1 0 0 1 0 0 2
EndChar

StartChar: asciicircum
Encoding: 94 94 113
Width: 545
Flags: HMW
LayerCount: 2
Fore
SplineSet
238 623 m 2
 140 569 l 2
 125 561 116 554 105 554 c 0
 99 554 92 556 84 560 c 2
 64 569 l 2
 51 575 45 579 45 583 c 0
 45 588 52 593 62 603 c 2
 196 745 l 2
 213 763 217 770 254 770 c 2
 298 770 l 2
 328 770 331 764 345 749 c 6
 479 607 l 2
 491 595 499 588 499 583 c 0
 499 578 493 575 478 568 c 2
 458 558 l 2
 452 555 446 554 441 554 c 0
 425 554 411 566 394 575 c 2
 314 619 l 2
 295 629 284 635 273 635 c 0
 264 635 254 632 238 623 c 2
EndSplineSet
EndChar

StartChar: degree
Encoding: 176 176 115
Width: 320
Flags: HMW
LayerCount: 2
Fore
SplineSet
105 680 m 0
 105 650 130 625 160 625 c 0
 190 625 215 650 215 680 c 0
 215 710 190 735 160 735 c 0
 130 735 105 710 105 680 c 0
40 680 m 0
 40 746 94 800 160 800 c 0
 226 800 280 746 280 680 c 0
 280 614 226 560 160 560 c 0
 94 560 40 614 40 680 c 0
EndSplineSet
EndChar

StartChar: onequarter
Encoding: 188 188 119
Width: 1000
Flags: HMW
LayerCount: 2
Fore
SplineSet
704 750 m 6
 736 750 l 6
 755 750 761 748 761 743 c 0
 761 738 753 729 746 718 c 6
 335 18 l 6
 327 4 326 0 302 0 c 6
 265 0 l 6
 246 0 239 2 239 6 c 0
 239 10 246 17 252 28 c 6
 668 728 l 6
 678 744 677 750 704 750 c 6
EndSplineSet
Refer: 6 52 N 0.6 0 0 0.6 535 32 2
Refer: 3 49 N 0.6 0 0 0.6 107 456 2
EndChar

StartChar: onehalf
Encoding: 189 189 120
Width: 1000
Flags: HMW
LayerCount: 2
Fore
SplineSet
704 750 m 6
 736 750 l 6
 755 750 761 748 761 743 c 0
 761 738 753 729 746 718 c 6
 335 18 l 6
 327 4 326 0 302 0 c 6
 265 0 l 6
 246 0 239 2 239 6 c 0
 239 10 246 17 252 28 c 6
 668 728 l 6
 678 744 677 750 704 750 c 6
EndSplineSet
Refer: 4 50 N 0.6 0 0 0.6 576 17 2
Refer: 3 49 N 0.6 0 0 0.6 107 456 2
EndChar

StartChar: threequarters
Encoding: 190 190 121
Width: 1000
Flags: HMW
LayerCount: 2
Fore
SplineSet
704 750 m 6
 736 750 l 6
 755 750 761 748 761 743 c 0
 761 738 753 729 746 718 c 6
 335 18 l 6
 327 4 326 0 302 0 c 6
 265 0 l 6
 246 0 239 2 239 6 c 0
 239 10 246 17 252 28 c 6
 668 728 l 6
 678 744 677 750 704 750 c 6
EndSplineSet
Refer: 6 52 N 0.6 0 0 0.6 535 32 2
Refer: 5 51 N 0.6 0 0 0.6 65 457 2
EndChar

StartChar: grave
Encoding: 96 96 123
Width: 395
Flags: HMW
LayerCount: 2
Fore
SplineSet
230 670 m 2
 225 669 220 669 215 669 c 0
 164 669 125 701 125 755 c 0
 125 802 160 847 205 847 c 0
 216 847 228 844 240 838 c 2
 380 768 l 2
 407 755 426 756 426 717 c 0
 426 674 404 684 368 681 c 6
 230 670 l 2
EndSplineSet
EndChar

StartChar: acute
Encoding: 180 180 124
Width: 395
Flags: HMW
LayerCount: 2
Fore
SplineSet
145 690 m 2
 -32 704 l 2
 -49 705 -50 704 -51 722 c 2
 -52 750 l 2
 -53 768 -48 767 -36 773 c 6
 135 858 l 2
 147 864 159 867 170 867 c 0
 215 867 250 822 250 775 c 0
 250 721 211 689 160 689 c 0
 155 689 150 689 145 690 c 2
EndSplineSet
EndChar

StartChar: cedilla
Encoding: 184 184 128
Width: 550
Flags: HMW
LayerCount: 2
Fore
SplineSet
231 -181 m 2
 233 -181 l 2
 285 -181 309 -169 309 -150 c 0
 309 -123 291 -106 216 -101 c 0
 180 -98 167 -95 167 -87 c 0
 167 -78 185 -64 202 -42 c 2
 267 41 l 1
 377 41 l 1
 323 -28 l 2
 312 -41 307 -48 307 -53 c 0
 307 -61 321 -62 346 -72 c 0
 386 -88 410 -113 410 -140 c 0
 410 -186 360 -241 218 -241 c 0
 211 -241 205 -242 199 -242 c 0
 188 -242 181 -239 181 -223 c 2
 181 -203 l 6
 181 -184 205 -181 231 -181 c 2
EndSplineSet
EndChar

StartChar: AE
Encoding: 198 198 526
Width: 1197
Flags: HMW
LayerCount: 2
Fore
SplineSet
290 295 m 5
 640 295 l 5
 640 190 l 5
 290 190 l 5
 290 295 l 5
0 135 m 5
 380 135 l 5
 380 0 l 5
 0 0 l 5
 0 135 l 5
646 750 m 5
 775 750 l 5
 169 0 l 5
 35 0 l 5
 646 750 l 5
EndSplineSet
Refer: 16 69 S 1 0 0 1 460 0 2
EndChar

StartChar: ae
Encoding: 230 230 529
Width: 959
VWidth: 1155
Flags: HMW
LayerCount: 2
Fore
SplineSet
344 284 m 1
 364 199 l 1
 298 199 252 178 252 141 c 0
 252 114 265 99 290 99 c 0
 338 99 356 123 356 194 c 1
 465 174 l 5
 465 50 331 -15 210 -15 c 0
 101 -15 15 24 15 118 c 0
 15 242 132 284 344 284 c 1
566 352 m 1
 566 136 l 1
 356 78 l 1
 356 372 l 1
 566 352 l 1
55 383 m 1
 55 480 187 535 328 535 c 0
 478 535 566 493 566 352 c 1
 356 362 l 1
 356 429 323 454 273 454 c 0
 259 454 247 452 247 439 c 1
 55 383 l 1
344 284 m 1
 458 284 l 1
 458 199 l 1
 364 199 l 1
 344 284 l 1
269 384 m 0
 269 310 218 290 164 290 c 0
 98 290 55 329 55 383 c 1
 247 439 l 1
 247 426 269 422 269 384 c 0
415 250 m 1
 566 265 l 1
 566 171 576 83 665 83 c 0
 718 83 747 113 772 173 c 1
 908 173 l 1
 882 36 774 -20 643 -20 c 0
 442 -20 415 110 415 250 c 1
502 329 m 1
 816 329 l 1
 816 226 l 1
 502 226 l 1
 502 329 l 1
919 226 m 1
 709 226 l 1
 709 252 710 279 710 306 c 0
 710 377 703 441 649 441 c 0
 570 441 566 354 566 250 c 1
 415 250 l 1
 415 410 449 540 650 540 c 0
 899 540 919 355 919 226 c 1
EndSplineSet
EndChar

StartChar: perthousand
Encoding: 8240 8240 537
Width: 1550
Flags: HMW
LayerCount: 2
Fore
SplineSet
1280 210 m 0
 1280 108 1286 70 1315 70 c 0
 1344 70 1350 108 1350 210 c 0
 1350 312 1344 350 1315 350 c 0
 1286 350 1280 312 1280 210 c 0
1080 210 m 0
 1080 353 1172 440 1315 440 c 0
 1458 440 1550 353 1550 210 c 0
 1550 67 1438 -20 1315 -20 c 0
 1172 -20 1080 67 1080 210 c 0
790 210 m 0
 790 108 796 70 825 70 c 0
 854 70 860 108 860 210 c 0
 860 312 854 350 825 350 c 0
 796 350 790 312 790 210 c 0
590 210 m 0
 590 353 682 440 825 440 c 0
 968 440 1060 353 1060 210 c 0
 1060 67 948 -20 825 -20 c 0
 682 -20 590 67 590 210 c 0
757 750 m 6
 811 750 l 6
 833 750 842 747 842 738 c 0
 842 732 837 723 829 711 c 6
 376 33 l 6
 361 11 362 0 323 0 c 6
 252 0 l 6
 222 0 212 3 212 9 c 0
 212 15 222 25 233 41 c 6
 687 715 l 6
 706 743 708 750 757 750 c 6
200 540 m 0
 200 438 206 400 235 400 c 0
 264 400 270 438 270 540 c 0
 270 642 264 680 235 680 c 0
 206 680 200 642 200 540 c 0
0 540 m 0
 0 683 92 770 235 770 c 0
 378 770 470 683 470 540 c 0
 470 397 358 310 235 310 c 0
 92 310 0 397 0 540 c 0
EndSplineSet
EndChar

StartChar: uni2031
Encoding: 8241 8241 538
Width: 2025
Flags: HMW
LayerCount: 2
Fore
SplineSet
757 750 m 6
 811 750 l 6
 833 750 842 747 842 738 c 0
 842 732 837 723 829 711 c 6
 376 33 l 6
 361 11 362 0 323 0 c 6
 252 0 l 6
 222 0 212 3 212 9 c 0
 212 15 222 25 233 41 c 6
 687 715 l 6
 706 743 708 750 757 750 c 6
1755 200 m 0
 1755 98 1761 60 1790 60 c 0
 1819 60 1825 98 1825 200 c 0
 1825 302 1819 340 1790 340 c 0
 1761 340 1755 302 1755 200 c 0
1555 200 m 0
 1555 343 1647 430 1790 430 c 0
 1933 430 2025 343 2025 200 c 0
 2025 57 1913 -30 1790 -30 c 0
 1647 -30 1555 57 1555 200 c 0
1275 200 m 0
 1275 98 1281 60 1310 60 c 0
 1339 60 1345 98 1345 200 c 0
 1345 302 1339 340 1310 340 c 0
 1281 340 1275 302 1275 200 c 0
1075 200 m 0
 1075 343 1167 430 1310 430 c 0
 1453 430 1545 343 1545 200 c 0
 1545 57 1433 -30 1310 -30 c 0
 1167 -30 1075 57 1075 200 c 0
790 210 m 0
 790 108 796 70 825 70 c 0
 854 70 860 108 860 210 c 0
 860 312 854 350 825 350 c 0
 796 350 790 312 790 210 c 0
590 210 m 0
 590 353 682 440 825 440 c 0
 968 440 1060 353 1060 210 c 0
 1060 67 948 -20 825 -20 c 0
 682 -20 590 67 590 210 c 0
200 540 m 0
 200 438 206 400 235 400 c 0
 264 400 270 438 270 540 c 0
 270 642 264 680 235 680 c 0
 206 680 200 642 200 540 c 0
0 540 m 0
 0 683 92 770 235 770 c 0
 378 770 470 683 470 540 c 0
 470 397 358 310 235 310 c 0
 92 310 0 397 0 540 c 0
EndSplineSet
EndChar

StartChar: uniFB00
Encoding: 64256 64256 542
Width: 865
VWidth: 1155
Flags: HMW
LayerCount: 2
Back
SplineSet
960 664 m 5
 793 709 l 5
 793 717 781 725 759 725 c 4
 679 725 660 677 660 550 c 5
 490 572 l 5
 490 703 587 800 737 800 c 4
 868 800 960 751 960 664 c 5
763 646 m 4
 763 693 793 698 793 709 c 5
 960 664 l 5
 960 594 915 553 863 553 c 4
 801 553 763 591 763 646 c 4
420 85 m 5
 490 85 l 5
 490 0 l 5
 420 0 l 5
 420 85 l 5
660 85 m 5
 780 85 l 5
 780 0 l 5
 660 0 l 5
 660 85 l 5
490 572 m 5
 660 550 l 5
 660 0 l 5
 490 0 l 5
 490 572 l 5
600 644 m 5
 433 689 l 5
 433 697 411 705 389 705 c 4
 309 705 280 637 280 550 c 5
 110 572 l 5
 110 703 217 780 367 780 c 4
 498 780 600 731 600 644 c 5
403 626 m 4
 403 673 433 678 433 689 c 5
 600 644 l 5
 600 574 555 553 503 553 c 4
 441 553 403 571 403 626 c 4
20 85 m 5
 110 85 l 5
 110 0 l 5
 20 0 l 5
 20 85 l 5
280 85 m 5
 380 85 l 5
 380 0 l 5
 280 0 l 5
 280 85 l 5
20 520 m 5
 800 520 l 5
 800 435 l 5
 20 435 l 5
 20 520 l 5
110 572 m 5
 280 550 l 5
 280 0 l 5
 110 0 l 5
 110 572 l 5
EndSplineSet
Fore
SplineSet
589 732 m 1
 640.785117561 774.369641641 710.084589404 800 807 800 c 0
 968 800 1040 731 1040 654 c 0
 1040 574 985 543 923 543 c 0
 851 543 803 581 803 636 c 0
 803 683 839 694 839 705 c 0
 839 712 825 713 815 713 c 0
 775 713 720 677 720 550 c 2
 720 538 l 2
 720 522 723 520 733 520 c 0
 759.666666667 520 786.333333333 520 813 520 c 0
 830 520 840 515 840 496 c 2
 840 441 l 2
 840 423 837 415 819 415 c 2
 740 415 l 2
 721 415 720 413 720 399 c 0
 720 310 720 221 720 132 c 0
 720 107 722 105 741 105 c 0
 763.333333333 105 785.666666667 105 808 105 c 0
 830 105 840 101 840 77 c 2
 840 22 l 2
 840 1 839 0 823 -0 c 2
 445 -0 l 2
 432 0 430 2 430 21 c 2
 430 89 l 2
 430 101 432 105 452 105 c 2
 489 105 l 2
 508 105 510 109 510 120 c 2
 510 395 l 2
 510 413 509 415 485 415 c 2
 345 415 l 2
 319 415 320 414 320 388 c 2
 320 136 l 6
 320 115 321 105 342 105 c 2
 367 105 l 2
 389 105 390 104 390 87 c 2
 390 20 l 2
 390 2 389 0 365 0 c 2
 42 -0 l 2
 20 0 20 0 20 24 c 2
 20 83 l 2
 20 104 21 105 39 105 c 2
 86 105 l 2
 109 105 110 106 110 132 c 2
 110 395 l 2
 110 413 107 415 96 415 c 2
 35 415 l 2
 22 415 20 417 20 436 c 2
 20 499 l 2
 20 518 24 520 35 520 c 2
 98 520 l 2
 107 520 110 522 110 537 c 2
 110 552 l 2
 110 663 207 780 407 780 c 0
 487.64875451 780 547.17736978 765.458104176 589 732 c 1
350 520 m 2
 495 520 l 2
 505 520 510 523 510 526 c 0
 510 530 504 534 494 535 c 0
 438 542 403 569 403 616 c 0
 403 663 439 674 439 685 c 0
 439 692 425 693 415 693 c 0
 375 693 320 657 320 530 c 0
 320 521 326 519 333 519 c 0
 338 519 344 520 350 520 c 2
EndSplineSet
LCarets2: 1 0
Ligature2: "Not your mama's contextual ligatures" f f
EndChar

StartChar: uniFB01
Encoding: 64257 64257 543
Width: 815
VWidth: 1155
Flags: HMW
LayerCount: 2
Back
SplineSet
410 85 m 5
 490 85 l 5
 490 0 l 5
 410 0 l 5
 410 85 l 5
660 85 m 5
 750 85 l 5
 750 0 l 5
 660 0 l 5
 660 85 l 5
490 520 m 5
 660 520 l 5
 660 0 l 5
 490 0 l 5
 490 520 l 5
620 664 m 5
 445 712 l 5
 445 720 421 725 399 725 c 4
 319 725 280 677 280 550 c 5
 110 572 l 5
 110 703 217 800 387 800 c 4
 518 800 620 761 620 664 c 5
423 656 m 4
 423 693 445 705 445 712 c 5
 620 664 l 5
 620 604 575 563 523 563 c 4
 461 563 423 601 423 656 c 4
20 85 m 5
 110 85 l 5
 110 0 l 5
 20 0 l 5
 20 85 l 5
280 85 m 5
 390 85 l 5
 390 0 l 5
 280 0 l 5
 280 85 l 5
20 520 m 5
 490 520 l 5
 490 435 l 5
 20 435 l 5
 20 520 l 5
110 572 m 5
 280 550 l 5
 280 0 l 5
 110 0 l 5
 110 572 l 5
EndSplineSet
Fore
SplineSet
425 34 m 2
 425 78 l 2
 425 104 426 105 449 105 c 0
 460 105 471 105 482 105 c 0
 507 105 511 111 511 126 c 0
 511 133 510 142 510 152 c 2
 510 388 l 2
 510 414 509 415 478 415 c 2
 348 415 l 2
 321 415 320 413 320 392 c 2
 320 124 l 2
 320 110 323 105 346 105 c 2
 376 105 l 2
 393 105 396 98 396 87 c 0
 396 81 395 73 395 64 c 2
 395 44 l 2
 395 5 384 -1 361 -1 c 0
 350 -1 337 0 320 0 c 2
 110 0 l 2
 90 0 72 -3 58 -3 c 0
 34 -3 20 4 20 40 c 2
 20 80 l 2
 20 100 23 105 54 105 c 2
 76 105 l 2
 108 105 110 108 110 132 c 0
 110 220.666666667 110 309.333333333 110 398 c 0
 110 414 108 415 98 415 c 0
 80 415 62 415 44 415 c 0
 22 415 20 417 20 433 c 0
 20 452.666666667 20 472.333333333 20 492 c 0
 20 518 22 520 42 520 c 0
 56 520 70 520 84 520 c 0
 108 520 110 523 110 539 c 0
 110 550 110 561 110 572 c 0
 110 683 227 800 427 800 c 0
 588 800 670 731 670 654 c 0
 670 594 615 553 553 553 c 0
 481 553 433 581 433 636 c 0
 433 683 469 694 469 705 c 0
 469 712 450 713 440 713 c 0
 390 713 320 677 320 550 c 0
 320 522 322 520 344 520 c 2
 691 520 l 2
 718 520 720 519 720 488 c 2
 720 122 l 2
 720 109 722 105 744 105 c 2
 778 105 l 2
 785 105 791 106 796 106 c 0
 806 106 810 103 810 86 c 2
 810 36 l 2
 810 1 809 0 777 -0 c 0
 670.666666667 -0 564.333333333 0 458 0 c 0
 425 0 425 1 425 34 c 2
EndSplineSet
LCarets2: 1 0
Ligature2: "Not your mama's contextual ligatures" f i
EndChar

StartChar: uniFB02
Encoding: 64258 64258 544
Width: 830
VWidth: 1155
Flags: HMW
LayerCount: 2
Back
SplineSet
610 644 m 5
 443 689 l 5
 443 697 411 705 389 705 c 4
 309 705 280 637 280 550 c 5
 110 572 l 5
 110 703 217 780 367 780 c 4
 498 780 610 731 610 644 c 5
413 626 m 4
 413 673 443 678 443 689 c 5
 610 644 l 5
 610 574 565 533 513 533 c 4
 451 533 413 571 413 626 c 4
20 85 m 5
 110 85 l 5
 110 0 l 5
 20 0 l 5
 20 85 l 5
280 85 m 5
 380 85 l 5
 380 0 l 5
 280 0 l 5
 280 85 l 5
20 520 m 5
 420 520 l 5
 420 435 l 5
 20 435 l 5
 20 520 l 5
110 572 m 5
 280 550 l 5
 280 0 l 5
 110 0 l 5
 110 572 l 5
430 85 m 5
 520 85 l 5
 520 0 l 5
 430 0 l 5
 430 85 l 5
690 85 m 5
 780 85 l 5
 780 0 l 5
 690 0 l 5
 690 85 l 5
520 700 m 5
 690 800 l 5
 690 0 l 5
 520 0 l 5
 520 700 l 5
EndSplineSet
Fore
SplineSet
320 369 m 2
 320 137 l 2
 320 106 321 105 357 105 c 2
 381 105 l 2
 395 105 395 105 395 91 c 2
 395 20 l 2
 395 2 392 0 381 -0 c 0
 267.666666667 -0 154.333333333 0 41 0 c 0
 22 0 20 4 20 15 c 0
 20 38.3333333333 20 61.6666666667 20 85 c 0
 20 103 22 105 35 105 c 0
 53.3333333333 105 71.6666666667 105 90 105 c 0
 108 105 110 108 110 120 c 0
 110 207 110 294 110 381 c 0
 110 415 109 415 77 415 c 2
 54 415 l 2
 22 415 20 418 20 441 c 2
 20 500 l 2
 20 518 21 520 45 520 c 2
 94 520 l 2
 107 520 110 522 110 543 c 2
 110 572 l 2
 110 683 227 800 427 800 c 0
 495 800 548 788 588 768 c 0
 610 757 618 750 629 750 c 0
 636 750 645 753 660 761 c 2
 699 781 l 2
 710 787 720 797 727 797 c 0
 732 797 735 792 735 777 c 2
 735 153 l 2
 735 143 734 135 734 129 c 0
 734 111 738 105 768 105 c 2
 800 105 l 2
 824 105 825 104 825 75 c 6
 825 37 l 2
 825 2 824 0 783 0 c 2
 471 0 l 2
 435 0 435 0 435 36 c 2
 435 75 l 2
 435 105 435 105 465 105 c 2
 492 105 l 2
 521 105 526 114 526 132 c 0
 526 142 525 154 525 168 c 2
 525 510 l 2
 525 553 514 544 486 557 c 0
 453 573 433 601 433 636 c 0
 433 683 469 694 469 705 c 0
 469 712 450 713 440 713 c 0
 390 713 320 677 320 550 c 0
 320 520 321 520 349 520 c 2
 414 520 l 2
 450 520 450 519 450 483 c 2
 450 443 l 2
 450 418 448 415 414 415 c 2
 366 415 l 2
 320 415 320 415 320 369 c 2
EndSplineSet
LCarets2: 1 0
Ligature2: "Not your mama's contextual ligatures" f l
EndChar

StartChar: uniFB03
Encoding: 64259 64259 545
Width: 1215
VWidth: 1155
Flags: HMW
LayerCount: 2
Back
SplineSet
600 644 m 5
 433 689 l 5
 433 697 411 705 389 705 c 4
 309 705 280 637 280 550 c 5
 110 572 l 5
 110 703 217 780 367 780 c 4
 498 780 600 731 600 644 c 5
403 626 m 4
 403 673 433 678 433 689 c 5
 600 644 l 5
 600 574 555 553 503 553 c 4
 441 553 403 571 403 626 c 4
20 85 m 5
 110 85 l 5
 110 0 l 5
 20 0 l 5
 20 85 l 5
280 85 m 5
 380 85 l 5
 380 0 l 5
 280 0 l 5
 280 85 l 5
20 520 m 5
 890 520 l 5
 890 435 l 5
 20 435 l 5
 20 520 l 5
110 572 m 5
 280 550 l 5
 280 0 l 5
 110 0 l 5
 110 572 l 5
810 85 m 5
 890 85 l 5
 890 0 l 5
 810 0 l 5
 810 85 l 5
1060 85 m 5
 1150 85 l 5
 1150 0 l 5
 1060 0 l 5
 1060 85 l 5
890 520 m 5
 1060 520 l 5
 1060 0 l 5
 890 0 l 5
 890 520 l 5
1020 664 m 5
 845 712 l 5
 845 720 821 725 799 725 c 4
 719 725 680 677 680 550 c 5
 510 572 l 5
 510 703 617 800 787 800 c 4
 918 800 1020 761 1020 664 c 5
823 656 m 4
 823 693 845 705 845 712 c 5
 1020 664 l 5
 1020 604 975 563 923 563 c 4
 861 563 823 601 823 656 c 4
420 85 m 5
 510 85 l 5
 510 0 l 5
 420 0 l 5
 420 85 l 5
680 85 m 5
 790 85 l 5
 790 0 l 5
 680 0 l 5
 680 85 l 5
510 572 m 5
 680 550 l 5
 680 0 l 5
 510 0 l 5
 510 572 l 5
EndSplineSet
Fore
SplineSet
825 32 m 2
 825 81 l 2
 825 104 826 105 852 105 c 2
 884 105 l 2
 908 105 910 108 910 125 c 2
 910 392 l 2
 910 413 908 415 880 415 c 2
 764 415 l 2
 754 415 747 416 741 416 c 0
 726 416 720 412 720 387 c 2
 720 123 l 2
 720 109 723 105 746 105 c 2
 776 105 l 2
 793 105 795 103 795 80 c 2
 795 24 l 2
 795 0 794 0 772 -0 c 2
 459 -0 l 2
 432 0 430 1 430 32 c 2
 430 86 l 2
 430 103 434 105 444 105 c 0
 466 105 488 105 510 105 c 1
 510 392 l 2
 510 413 508 415 480 415 c 2
 342 415 l 2
 322 415 320 413 320 385 c 2
 320 138 l 2
 320 106 322 105 349 105 c 0
 356 105 363 105 370 105 c 0
 388 105 391 101 391 90 c 0
 391 85 390 79 390 72 c 2
 390 26 l 2
 390 3 386 0 371 -0 c 2
 38 -0 l 2
 23 0 20 2 20 24 c 2
 20 86 l 2
 20 103 23 105 34 105 c 0
 50 105 66 105 82 105 c 0
 108 105 110 108 110 126 c 0
 110 207 110 288 110 369 c 0
 110 379 111 388 111 395 c 0
 111 407 108 415 88 415 c 2
 48 415 l 2
 19 415 20 416 20 445 c 2
 20 495 l 2
 20 517 24 520 38 520 c 0
 54 520 70 520 86 520 c 0
 108 520 110 523 110 537 c 2
 110 552 l 2
 110 663 207 780 407 780 c 0
 470 780 520 770 557 752 c 0
 577 742 587 737 595 737 c 0
 605 737 613 744 636 756 c 0
 686 783 751 800 827 800 c 0
 988 800 1070 731 1070 654 c 0
 1070 594 1015 553 953 553 c 0
 881 553 833 581 833 636 c 0
 833 683 869 694 869 705 c 0
 869 712 850 713 840 713 c 0
 790 713 720 677 720 550 c 2
 720 541 l 2
 720 524 735 520 750 520 c 2
 1097 520 l 2
 1120 520 1120 509 1120 486 c 6
 1120 132 l 2
 1120 106 1119 105 1146 105 c 2
 1176 105 l 2
 1184 105 1190 106 1195 106 c 0
 1204 106 1210 103 1210 88 c 2
 1210 16 l 2
 1210 4 1208 0 1188 0 c 2
 855 -0 l 2
 826 0 825 0 825 32 c 2
350 520 m 2
 485 520 l 2
 495 520 510 519 510 527 c 0
 510 534 494 535 486 536 c 0
 435 544 403 571 403 616 c 0
 403 663 439 674 439 685 c 0
 439 692 425 693 415 693 c 0
 375 693 320 657 320 530 c 0
 320 521 326 519 333 519 c 0
 338 519 344 520 350 520 c 2
EndSplineSet
LCarets2: 2 0 0
Ligature2: "Not your mama's contextual ligatures" f f i
EndChar

StartChar: uniFB04
Encoding: 64260 64260 546
Width: 1230
VWidth: 1155
Flags: HMW
LayerCount: 2
Back
SplineSet
600 644 m 5
 433 689 l 5
 433 697 411 705 389 705 c 4
 309 705 280 637 280 550 c 5
 110 572 l 5
 110 703 217 780 367 780 c 4
 498 780 600 731 600 644 c 5
403 626 m 4
 403 673 433 678 433 689 c 5
 600 644 l 5
 600 574 555 553 503 553 c 4
 441 553 403 571 403 626 c 4
20 85 m 5
 110 85 l 5
 110 0 l 5
 20 0 l 5
 20 85 l 5
280 85 m 5
 380 85 l 5
 380 0 l 5
 280 0 l 5
 280 85 l 5
20 520 m 5
 800 520 l 5
 800 435 l 5
 20 435 l 5
 20 520 l 5
110 572 m 5
 280 550 l 5
 280 0 l 5
 110 0 l 5
 110 572 l 5
1010 644 m 5
 843 689 l 5
 843 697 811 705 789 705 c 4
 709 705 680 637 680 550 c 5
 510 572 l 5
 510 703 617 780 767 780 c 4
 898 780 1010 731 1010 644 c 5
813 626 m 4
 813 673 843 678 843 689 c 5
 1010 644 l 5
 1010 574 965 533 913 533 c 4
 851 533 813 571 813 626 c 4
420 85 m 5
 510 85 l 5
 510 0 l 5
 420 0 l 5
 420 85 l 5
680 85 m 5
 780 85 l 5
 780 0 l 5
 680 0 l 5
 680 85 l 5
420 520 m 5
 820 520 l 5
 820 435 l 5
 420 435 l 5
 420 520 l 5
510 572 m 5
 680 550 l 5
 680 0 l 5
 510 0 l 5
 510 572 l 5
830 85 m 5
 920 85 l 5
 920 0 l 5
 830 0 l 5
 830 85 l 5
1090 85 m 5
 1180 85 l 5
 1180 0 l 5
 1090 0 l 5
 1090 85 l 5
920 700 m 5
 1090 800 l 5
 1090 0 l 5
 920 0 l 5
 920 700 l 5
EndSplineSet
Fore
SplineSet
430 34 m 6
 430 87 l 2
 430 101 433 105 456 105 c 2
 488 105 l 2
 508 105 510 108 510 121 c 0
 510 219 510 317 510 415 c 1
 337 415 l 2
 321 415 320 413 320 402 c 2
 320 121 l 2
 320 108 322 105 342 105 c 2
 375 105 l 2
 387 105 390 103 390 84 c 2
 390 26 l 2
 390 3 385 -1 371 -1 c 0
 365 -1 357 0 348 0 c 2
 66 0 l 2
 56 0 47 -1 40 -1 c 0
 28 -1 20 2 20 20 c 2
 20 76 l 2
 20 104 19 105 48 105 c 2
 90 105 l 2
 108 105 110 109 110 120 c 0
 110 214 110 308 110 402 c 0
 110 414 106 416 99 416 c 0
 95 416 91 415 85 415 c 2
 35 415 l 2
 21 415 20 418 20 426 c 0
 20 451.333333333 20 476.666666667 20 502 c 0
 20 518 23 520 33 520 c 2
 95 520 l 2
 109 520 110 521 110 540 c 2
 110 552 l 2
 110 663 207 780 407 780 c 0
 495 780 556 759 594 728 c 1
 648 771 727 800 827 800 c 0
 907 800 967 783 1008 756 c 0
 1018 750 1023 747 1028 747 c 0
 1033 747 1038 749 1047 754 c 2
 1111 787 l 2
 1117 790 1123 795 1127 795 c 0
 1132 795 1135 788 1135 762 c 2
 1135 132 l 2
 1135 105 1135 105 1162 105 c 2
 1196 105 l 2
 1226 105 1225 104 1225 74 c 2
 1225 32 l 2
 1225 1 1223 0 1197 -0 c 2
 860 -0 l 2
 836 0 835 1 835 30 c 2
 835 82 l 2
 835 103 840 105 852 105 c 0
 870 105 888 105 906 105 c 0
 923 105 927 114 927 127 c 0
 927 136 925 146 925 156 c 2
 925 528 l 2
 925 546 923 544 909 548 c 0
 862 560 833 593 833 636 c 0
 833 683 869 694 869 705 c 0
 869 712 850 713 840 713 c 0
 790 713 720 677 720 550 c 2
 720 536 l 2
 720 522 723 520 732 520 c 0
 753.333333333 520 774.666666667 520 796 520 c 0
 801 520 806 521 810 521 c 0
 817 521 820 519 820 508 c 2
 820 427 l 2
 820 417 819 415 804 415 c 2
 733 415 l 2
 722 415 720 414 720 398 c 2
 720 148 l 2
 720 138 719 131 719 125 c 0
 719 111 723 105 746 105 c 2
 768 105 l 2
 795 105 795 105 795 78 c 2
 795 21 l 2
 795 4 792 0 766 0 c 2
 462 0 l 2
 429 0 430 1 430 34 c 6
349 520 m 2
 489 520 l 2
 503 520 509 522 509 525 c 0
 509 529 499 534 486 536 c 0
 435 544 403 571 403 616 c 0
 403 663 439 674 439 685 c 0
 439 692 425 693 415 693 c 0
 377 693 327 661 321 552 c 0
 321 546 320 542 320 538 c 0
 320 522 325 520 349 520 c 2
EndSplineSet
LCarets2: 2 0 0
Ligature2: "Not your mama's contextual ligatures" f f l
EndChar

StartChar: uniFFFD
Encoding: 65533 65533 547
Width: 880
Flags: HMW
LayerCount: 2
Back
SplineSet
485 440 m 5
 541 440 575 476 575 525 c 4
 575 574 541 615 485 615 c 5
 485 750 l 5
 716 750 815 675 815 555 c 4
 815 425 736 364 485 364 c 5
 485 440 l 5
375 750 m 5
 485 750 l 5
 485 615 l 5
 375 615 l 5
 375 750 l 5
375 440 m 5
 545 440 l 5
 545 310 l 5
 375 310 l 5
 375 440 l 5
30 135 m 5
 140 135 l 5
 140 0 l 5
 30 0 l 5
 30 135 l 5
30 750 m 5
 140 750 l 5
 140 615 l 5
 30 615 l 5
 30 750 l 5
140 750 m 5
 375 750 l 5
 375 0 l 5
 140 0 l 5
 140 750 l 5
375 135 m 5
 485 135 l 5
 485 0 l 5
 375 0 l 5
 375 135 l 5
963 130 m 5
 911 44 846 -20 730 -20 c 4
 467.03125 -20 611.256835938 310 435 310 c 5
 545 386 l 5
 858.294921875 386 741.228515625 154 814 154 c 4
 835 154 857 177 869 203 c 5
 963 130 l 5
EndSplineSet
Fore
SplineSet
843 -0 m 2
 725 0 l 2
 422 0 646 310 410 310 c 2
 392 310 l 2
 380 310 375 308 375 287 c 2
 375 195 l 2
 375 182 374 172 374 163 c 0
 374 143 379 135 412 135 c 2
 456 135 l 6
 479 135 485 129 485 107 c 2
 485 35 l 2
 485 2 482 0 458 -0 c 2
 64 -0 l 2
 33 0 30 2 30 43 c 2
 30 110 l 2
 30 130 34 135 66 135 c 2
 110 135 l 2
 137 135 141 141 141 157 c 0
 141 164 140 173 140 183 c 2
 140 593 l 2
 140 613 138 615 124 615 c 0
 105.333333333 615 86.6666666667 615 68 615 c 0
 32 615 30 618 30 645 c 0
 30 671.666666667 30 698.333333333 30 725 c 0
 30 747 38 751 52 751 c 0
 60 751 71 750 82 750 c 2
 485 750 l 2
 706 750 815 685 815 545 c 0
 815 462 775 412 686 391 c 0
 646 382 626 377 626 371 c 0
 626 366 642 359 674 346 c 0
 822 285 723 135 811 135 c 2
 840 135 l 2
 847 135 852 136 857 136 c 0
 866 136 870 133 870 119 c 2
 870 31 l 2
 870 1 868 0 843 -0 c 2
485 615 m 2
 410 615 l 2
 402 615 395 616 390 616 c 0
 380 616 375 613 375 597 c 2
 375 458 l 2
 375 443 377 440 400 440 c 2
 485 440 l 2
 541 440 575 476 575 525 c 0
 575 574 541 615 485 615 c 2
EndSplineSet
EndChar
